%
M48
M72
T01C0.0197
T02C0.0256
T03C0.0394
T04C0.0400
T05C0.0512
T06C0.0610
T07C0.1750
%
T01
X15605Y26810
X14372Y27336
X13275Y26565
X11960Y26823
X11048Y25841
X9707Y25820
X9019Y24670
X7712Y24371
X7278Y23102
X6062Y22538
X5901Y21207
X4829Y20403
X4949Y19067
X4067Y18057
X4462Y16776
X3810Y15605
X4462Y14434
X4067Y13153
X4949Y12143
X4829Y10807
X5901Y10003
X6062Y8672
X7278Y8108
X7712Y6839
X9019Y6540
X9707Y5390
X11048Y5369
X11960Y4387
X13275Y4645
X14372Y3874
X15605Y4400
X16838Y3874
X17935Y4645
X19250Y4387
X20162Y5369
X21503Y5390
X22191Y6540
X23498Y6839
X23932Y8108
X25148Y8672
X25309Y10003
X26381Y10807
X26261Y12143
X27143Y13153
X26748Y14434
X27400Y15605
X26748Y16776
X27143Y18057
X26261Y19067
X26381Y20403
X25309Y21207
X25148Y22538
X23932Y23102
X23498Y24371
X22191Y24670
X21503Y25820
X20162Y25841
X19250Y26823
X17935Y26565
X16838Y27336
X15605Y25685
X14490Y26217
X13509Y25464
X12308Y25753
X11505Y24813
X10270Y24846
X9680Y23760
X8465Y23535
X8114Y22350
X6973Y21877
X6876Y20645
X5857Y19945
X6019Y18720
X5168Y17823
X5581Y16659
X4935Y15605
X5581Y14551
X5168Y13387
X6019Y12490
X5857Y11265
X6876Y10565
X6973Y9333
X8114Y8860
X8465Y7675
X9680Y7450
X10270Y6364
X11505Y6397
X12308Y5457
X13509Y5746
X14490Y4993
X15605Y5525
X16720Y4993
X17701Y5746
X18902Y5457
X19705Y6397
X20940Y6364
X21530Y7450
X22745Y7675
X23096Y8860
X24237Y9333
X24334Y10565
X25353Y11265
X25191Y12490
X26042Y13387
X25629Y14551
X26275Y15605
X25629Y16659
X26042Y17823
X25191Y18720
X25353Y19945
X24334Y20645
X24237Y21877
X23096Y22350
X22745Y23535
X21530Y23760
X20940Y24846
X19705Y24813
X18902Y25753
X17701Y25464
X16720Y26217
X15605Y24560
X11128Y23360
X7850Y20082
X6650Y15605
X7850Y11128
X11128Y7850
X15605Y6650
X20082Y7850
X23360Y11128
X24560Y15605
X23360Y20082
X20082Y23360
X16105Y15605
X15105Y15605
X18505Y18505
X15605Y3305
X15605Y8105
X12705Y12705
X12655Y18505
X19552Y20730
X22909Y27549
X11505Y22555
X18505Y12705
X15605Y17905
X16405Y11455
X15605Y9730
X8836Y19411
X21540Y22245
X19800Y17033
X17022Y9605
X13730Y20605
X23105Y25205
X21305Y22617
X10320Y19335
X10014Y17022
T02
X20157Y28228
X18318Y28745
T03
X11091Y28397
X9287Y27609
T04
X22405Y13676
X21305Y13676
X22255Y12626
X21455Y12626
X22405Y11576
X21305Y11576
T05
X9320Y26549
X11846Y27653
T06
X21097Y29190
X18017Y30056
T07
X15605Y29205
M30
