G75*
G70*
%OFA0B0*%
%FSLAX24Y24*%
%IPPOS*%
%LPD*%
%AMOC8*
5,1,8,0,0,1.08239X$1,22.5*
%
%ADD10C,0.0050*%
%ADD11C,0.0000*%
%ADD12C,0.0030*%
%ADD13C,0.0120*%
%ADD14C,0.0080*%
%ADD15C,0.0040*%
%ADD16R,0.0350X0.0300*%
%ADD17R,0.0098X0.0098*%
%ADD18R,0.0450X0.0125*%
%ADD19R,0.0300X0.0350*%
D10*
X008223Y008282D02*
X008223Y010133D01*
X009995Y010133D01*
X009995Y008282D01*
X008223Y008282D01*
X008223Y010133D02*
X008223Y014385D01*
X009995Y014385D01*
X009995Y010133D01*
X004605Y022052D02*
X004303Y021507D01*
X004029Y020948D01*
X003781Y020376D01*
X003562Y019793D01*
X003372Y019200D01*
X003211Y018598D01*
X003080Y017989D01*
X002978Y017375D01*
X002907Y016756D01*
X002866Y016134D01*
X002855Y015512D01*
X002875Y014889D01*
X002925Y014268D01*
X003006Y013651D01*
X003116Y013038D01*
X003256Y012431D01*
X003426Y011831D01*
X003625Y011241D01*
X003852Y010661D01*
X004108Y010093D01*
X004391Y009538D01*
X004701Y008998D01*
X005036Y008473D01*
X005397Y007965D01*
X005782Y007476D01*
X006191Y007006D01*
X006622Y006556D01*
X007075Y006129D01*
X007548Y005723D01*
X008040Y005342D01*
X008551Y004984D01*
X009078Y004653D01*
X009620Y004347D01*
X010177Y004068D01*
X010747Y003817D01*
X011329Y003593D01*
X011921Y003399D01*
X012521Y003234D01*
X013129Y003098D01*
X013743Y002992D01*
X014361Y002916D01*
X014982Y002870D01*
X015605Y002855D01*
X016228Y002870D01*
X016849Y002916D01*
X017467Y002992D01*
X018081Y003098D01*
X018689Y003234D01*
X019289Y003399D01*
X019881Y003593D01*
X020463Y003817D01*
X021033Y004068D01*
X021590Y004347D01*
X022132Y004653D01*
X022659Y004984D01*
X023170Y005342D01*
X023662Y005723D01*
X024135Y006129D01*
X024588Y006556D01*
X025019Y007006D01*
X025428Y007476D01*
X025813Y007965D01*
X026174Y008473D01*
X026509Y008998D01*
X026819Y009538D01*
X027102Y010093D01*
X027358Y010661D01*
X027585Y011241D01*
X027784Y011831D01*
X027954Y012431D01*
X028094Y013038D01*
X028204Y013651D01*
X028285Y014268D01*
X028335Y014889D01*
X028355Y015512D01*
X028344Y016134D01*
X028303Y016756D01*
X028232Y017375D01*
X028130Y017989D01*
X027999Y018598D01*
X027838Y019200D01*
X027648Y019793D01*
X027429Y020376D01*
X027181Y020948D01*
X026907Y021507D01*
X026605Y022052D01*
X026605Y025480D01*
X026601Y025595D01*
X026592Y025710D01*
X026577Y025824D01*
X026557Y025937D01*
X026532Y026050D01*
X026502Y026161D01*
X026466Y026270D01*
X026426Y026378D01*
X026381Y026484D01*
X026331Y026587D01*
X026276Y026688D01*
X026216Y026787D01*
X026153Y026882D01*
X026084Y026975D01*
X026012Y027064D01*
X025935Y027150D01*
X025855Y027232D01*
X025283Y027712D01*
X024689Y028164D01*
X024074Y028587D01*
X023439Y028980D01*
X022786Y029341D01*
X022116Y029671D01*
X021431Y029968D01*
X020733Y030232D01*
X020023Y030462D01*
X019302Y030658D01*
X018573Y030818D01*
X017837Y030943D01*
X017096Y031033D01*
X016351Y031087D01*
X015605Y031105D01*
X014859Y031087D01*
X014114Y031033D01*
X013373Y030943D01*
X012637Y030818D01*
X011908Y030658D01*
X011187Y030462D01*
X010477Y030232D01*
X009779Y029968D01*
X009094Y029671D01*
X008424Y029341D01*
X007771Y028980D01*
X007136Y028587D01*
X006521Y028164D01*
X005927Y027712D01*
X005355Y027232D01*
X004605Y025355D02*
X004605Y022052D01*
X004605Y025355D02*
X004606Y025477D01*
X004613Y025599D01*
X004626Y025720D01*
X004644Y025841D01*
X004668Y025960D01*
X004697Y026079D01*
X004732Y026196D01*
X004772Y026311D01*
X004817Y026424D01*
X004867Y026535D01*
X004923Y026644D01*
X004983Y026750D01*
X005049Y026853D01*
X005119Y026953D01*
X005193Y027050D01*
X005272Y027143D01*
X005355Y027232D01*
D11*
X009064Y026549D02*
X009066Y026580D01*
X009072Y026611D01*
X009081Y026641D01*
X009094Y026670D01*
X009111Y026697D01*
X009131Y026721D01*
X009153Y026743D01*
X009179Y026762D01*
X009206Y026778D01*
X009235Y026790D01*
X009265Y026799D01*
X009296Y026804D01*
X009328Y026805D01*
X009359Y026802D01*
X009390Y026795D01*
X009420Y026785D01*
X009448Y026771D01*
X009474Y026753D01*
X009498Y026733D01*
X009519Y026709D01*
X009538Y026684D01*
X009553Y026656D01*
X009564Y026627D01*
X009572Y026596D01*
X009576Y026565D01*
X009576Y026533D01*
X009572Y026502D01*
X009564Y026471D01*
X009553Y026442D01*
X009538Y026414D01*
X009519Y026389D01*
X009498Y026365D01*
X009474Y026345D01*
X009448Y026327D01*
X009420Y026313D01*
X009390Y026303D01*
X009359Y026296D01*
X009328Y026293D01*
X009296Y026294D01*
X009265Y026299D01*
X009235Y026308D01*
X009206Y026320D01*
X009179Y026336D01*
X009153Y026355D01*
X009131Y026377D01*
X009111Y026401D01*
X009094Y026428D01*
X009081Y026457D01*
X009072Y026487D01*
X009066Y026518D01*
X009064Y026549D01*
X011590Y027653D02*
X011592Y027684D01*
X011598Y027715D01*
X011607Y027745D01*
X011620Y027774D01*
X011637Y027801D01*
X011657Y027825D01*
X011679Y027847D01*
X011705Y027866D01*
X011732Y027882D01*
X011761Y027894D01*
X011791Y027903D01*
X011822Y027908D01*
X011854Y027909D01*
X011885Y027906D01*
X011916Y027899D01*
X011946Y027889D01*
X011974Y027875D01*
X012000Y027857D01*
X012024Y027837D01*
X012045Y027813D01*
X012064Y027788D01*
X012079Y027760D01*
X012090Y027731D01*
X012098Y027700D01*
X012102Y027669D01*
X012102Y027637D01*
X012098Y027606D01*
X012090Y027575D01*
X012079Y027546D01*
X012064Y027518D01*
X012045Y027493D01*
X012024Y027469D01*
X012000Y027449D01*
X011974Y027431D01*
X011946Y027417D01*
X011916Y027407D01*
X011885Y027400D01*
X011854Y027397D01*
X011822Y027398D01*
X011791Y027403D01*
X011761Y027412D01*
X011732Y027424D01*
X011705Y027440D01*
X011679Y027459D01*
X011657Y027481D01*
X011637Y027505D01*
X011620Y027532D01*
X011607Y027561D01*
X011598Y027591D01*
X011592Y027622D01*
X011590Y027653D01*
X014730Y029205D02*
X014732Y029264D01*
X014738Y029323D01*
X014748Y029381D01*
X014762Y029439D01*
X014779Y029495D01*
X014801Y029550D01*
X014826Y029604D01*
X014855Y029655D01*
X014887Y029705D01*
X014922Y029752D01*
X014961Y029797D01*
X015002Y029839D01*
X015046Y029878D01*
X015093Y029915D01*
X015142Y029948D01*
X015193Y029977D01*
X015246Y030003D01*
X015301Y030026D01*
X015357Y030044D01*
X015414Y030059D01*
X015473Y030070D01*
X015531Y030077D01*
X015590Y030080D01*
X015649Y030079D01*
X015708Y030074D01*
X015767Y030065D01*
X015824Y030052D01*
X015881Y030035D01*
X015936Y030015D01*
X015990Y029991D01*
X016042Y029963D01*
X016093Y029932D01*
X016141Y029897D01*
X016186Y029859D01*
X016229Y029818D01*
X016269Y029775D01*
X016306Y029729D01*
X016340Y029680D01*
X016370Y029630D01*
X016397Y029577D01*
X016420Y029523D01*
X016440Y029467D01*
X016456Y029410D01*
X016468Y029352D01*
X016476Y029294D01*
X016480Y029235D01*
X016480Y029175D01*
X016476Y029116D01*
X016468Y029058D01*
X016456Y029000D01*
X016440Y028943D01*
X016420Y028887D01*
X016397Y028833D01*
X016370Y028780D01*
X016340Y028730D01*
X016306Y028681D01*
X016269Y028635D01*
X016229Y028592D01*
X016186Y028551D01*
X016141Y028513D01*
X016093Y028478D01*
X016043Y028447D01*
X015990Y028419D01*
X015936Y028395D01*
X015881Y028375D01*
X015824Y028358D01*
X015767Y028345D01*
X015708Y028336D01*
X015649Y028331D01*
X015590Y028330D01*
X015531Y028333D01*
X015473Y028340D01*
X015414Y028351D01*
X015357Y028366D01*
X015301Y028384D01*
X015246Y028407D01*
X015193Y028433D01*
X015142Y028462D01*
X015093Y028495D01*
X015046Y028532D01*
X015002Y028571D01*
X014961Y028613D01*
X014922Y028658D01*
X014887Y028705D01*
X014855Y028755D01*
X014826Y028806D01*
X014801Y028860D01*
X014779Y028915D01*
X014762Y028971D01*
X014748Y029029D01*
X014738Y029087D01*
X014732Y029146D01*
X014730Y029205D01*
X017712Y030056D02*
X017714Y030091D01*
X017720Y030125D01*
X017730Y030158D01*
X017743Y030191D01*
X017760Y030221D01*
X017781Y030249D01*
X017804Y030275D01*
X017831Y030298D01*
X017859Y030317D01*
X017890Y030333D01*
X017923Y030346D01*
X017956Y030355D01*
X017991Y030360D01*
X018026Y030361D01*
X018060Y030358D01*
X018095Y030351D01*
X018128Y030340D01*
X018159Y030326D01*
X018189Y030308D01*
X018217Y030287D01*
X018242Y030262D01*
X018264Y030235D01*
X018283Y030206D01*
X018298Y030175D01*
X018310Y030142D01*
X018318Y030108D01*
X018322Y030073D01*
X018322Y030039D01*
X018318Y030004D01*
X018310Y029970D01*
X018298Y029937D01*
X018283Y029906D01*
X018264Y029877D01*
X018242Y029850D01*
X018217Y029825D01*
X018189Y029804D01*
X018159Y029786D01*
X018128Y029772D01*
X018095Y029761D01*
X018060Y029754D01*
X018026Y029751D01*
X017991Y029752D01*
X017956Y029757D01*
X017923Y029766D01*
X017890Y029779D01*
X017859Y029795D01*
X017831Y029814D01*
X017804Y029837D01*
X017781Y029863D01*
X017760Y029891D01*
X017743Y029921D01*
X017730Y029954D01*
X017720Y029987D01*
X017714Y030021D01*
X017712Y030056D01*
X018190Y028745D02*
X018192Y028767D01*
X018198Y028789D01*
X018207Y028809D01*
X018220Y028827D01*
X018236Y028843D01*
X018254Y028856D01*
X018274Y028865D01*
X018296Y028871D01*
X018318Y028873D01*
X018340Y028871D01*
X018362Y028865D01*
X018382Y028856D01*
X018400Y028843D01*
X018416Y028827D01*
X018429Y028809D01*
X018438Y028789D01*
X018444Y028767D01*
X018446Y028745D01*
X018444Y028723D01*
X018438Y028701D01*
X018429Y028681D01*
X018416Y028663D01*
X018400Y028647D01*
X018382Y028634D01*
X018362Y028625D01*
X018340Y028619D01*
X018318Y028617D01*
X018296Y028619D01*
X018274Y028625D01*
X018254Y028634D01*
X018236Y028647D01*
X018220Y028663D01*
X018207Y028681D01*
X018198Y028701D01*
X018192Y028723D01*
X018190Y028745D01*
X020029Y028228D02*
X020031Y028250D01*
X020037Y028272D01*
X020046Y028292D01*
X020059Y028310D01*
X020075Y028326D01*
X020093Y028339D01*
X020113Y028348D01*
X020135Y028354D01*
X020157Y028356D01*
X020179Y028354D01*
X020201Y028348D01*
X020221Y028339D01*
X020239Y028326D01*
X020255Y028310D01*
X020268Y028292D01*
X020277Y028272D01*
X020283Y028250D01*
X020285Y028228D01*
X020283Y028206D01*
X020277Y028184D01*
X020268Y028164D01*
X020255Y028146D01*
X020239Y028130D01*
X020221Y028117D01*
X020201Y028108D01*
X020179Y028102D01*
X020157Y028100D01*
X020135Y028102D01*
X020113Y028108D01*
X020093Y028117D01*
X020075Y028130D01*
X020059Y028146D01*
X020046Y028164D01*
X020037Y028184D01*
X020031Y028206D01*
X020029Y028228D01*
X020792Y029190D02*
X020794Y029225D01*
X020800Y029259D01*
X020810Y029292D01*
X020823Y029325D01*
X020840Y029355D01*
X020861Y029383D01*
X020884Y029409D01*
X020911Y029432D01*
X020939Y029451D01*
X020970Y029467D01*
X021003Y029480D01*
X021036Y029489D01*
X021071Y029494D01*
X021106Y029495D01*
X021140Y029492D01*
X021175Y029485D01*
X021208Y029474D01*
X021239Y029460D01*
X021269Y029442D01*
X021297Y029421D01*
X021322Y029396D01*
X021344Y029369D01*
X021363Y029340D01*
X021378Y029309D01*
X021390Y029276D01*
X021398Y029242D01*
X021402Y029207D01*
X021402Y029173D01*
X021398Y029138D01*
X021390Y029104D01*
X021378Y029071D01*
X021363Y029040D01*
X021344Y029011D01*
X021322Y028984D01*
X021297Y028959D01*
X021269Y028938D01*
X021239Y028920D01*
X021208Y028906D01*
X021175Y028895D01*
X021140Y028888D01*
X021106Y028885D01*
X021071Y028886D01*
X021036Y028891D01*
X021003Y028900D01*
X020970Y028913D01*
X020939Y028929D01*
X020911Y028948D01*
X020884Y028971D01*
X020861Y028997D01*
X020840Y029025D01*
X020823Y029055D01*
X020810Y029088D01*
X020800Y029121D01*
X020794Y029155D01*
X020792Y029190D01*
D12*
X017026Y019327D02*
X016930Y019327D01*
X016881Y019279D01*
X016881Y019182D01*
X016930Y019134D01*
X017026Y019134D01*
X017075Y019182D01*
X017075Y019279D01*
X017026Y019327D01*
X016780Y019279D02*
X016780Y019134D01*
X016635Y019134D01*
X016586Y019182D01*
X016635Y019231D01*
X016780Y019231D01*
X016780Y019279D02*
X016732Y019327D01*
X016635Y019327D01*
X016485Y019279D02*
X016485Y019134D01*
X016485Y019279D02*
X016437Y019327D01*
X016340Y019327D01*
X016292Y019279D01*
X016191Y019376D02*
X015997Y019182D01*
X015997Y019134D01*
X016191Y019134D01*
X016292Y019134D02*
X016292Y019424D01*
X016191Y019424D02*
X016191Y019376D01*
X016191Y019424D02*
X015997Y019424D01*
X016085Y018991D02*
X016085Y018701D01*
X016182Y018797D01*
X016279Y018701D01*
X016279Y018991D01*
X016428Y018894D02*
X016525Y018894D01*
X016573Y018846D01*
X016573Y018701D01*
X016428Y018701D01*
X016380Y018749D01*
X016428Y018797D01*
X016573Y018797D01*
X016675Y018894D02*
X016771Y018894D01*
X016723Y018943D02*
X016723Y018749D01*
X016771Y018701D01*
X016871Y018749D02*
X016871Y018846D01*
X016919Y018894D01*
X017064Y018894D01*
X017166Y018846D02*
X017214Y018894D01*
X017311Y018894D01*
X017359Y018846D01*
X017359Y018701D01*
X017166Y018701D02*
X017166Y018991D01*
X017064Y018701D02*
X016919Y018701D01*
X016871Y018749D01*
X016780Y018519D02*
X016780Y018470D01*
X016587Y018277D01*
X016587Y018228D01*
X016486Y018277D02*
X016437Y018228D01*
X016341Y018228D01*
X016292Y018277D01*
X016486Y018470D01*
X016486Y018277D01*
X016486Y018470D02*
X016437Y018519D01*
X016341Y018519D01*
X016292Y018470D01*
X016292Y018277D01*
X016191Y018277D02*
X016143Y018228D01*
X016046Y018228D01*
X015998Y018277D01*
X016191Y018470D01*
X016191Y018277D01*
X016191Y018470D02*
X016143Y018519D01*
X016046Y018519D01*
X015998Y018470D01*
X015998Y018277D01*
X015896Y018228D02*
X015703Y018228D01*
X015800Y018228D02*
X015800Y018519D01*
X015703Y018422D01*
X015602Y018422D02*
X015602Y018470D01*
X015553Y018519D01*
X015457Y018519D01*
X015408Y018470D01*
X015602Y018422D02*
X015408Y018228D01*
X015602Y018228D01*
X015307Y018228D02*
X015114Y018228D01*
X015210Y018228D02*
X015210Y018519D01*
X015114Y018422D01*
X015012Y018470D02*
X014819Y018277D01*
X014867Y018228D01*
X014964Y018228D01*
X015012Y018277D01*
X015012Y018470D01*
X014964Y018519D01*
X014867Y018519D01*
X014819Y018470D01*
X014819Y018277D01*
X014718Y018228D02*
X014524Y018228D01*
X014718Y018422D01*
X014718Y018470D01*
X014669Y018519D01*
X014573Y018519D01*
X014524Y018470D01*
X014513Y018701D02*
X014465Y018749D01*
X014465Y018846D01*
X014513Y018894D01*
X014610Y018894D01*
X014658Y018846D01*
X014658Y018749D01*
X014610Y018701D01*
X014513Y018701D01*
X014363Y018846D02*
X014315Y018797D01*
X014170Y018797D01*
X014170Y018701D02*
X014170Y018991D01*
X014315Y018991D01*
X014363Y018943D01*
X014363Y018846D01*
X014327Y019134D02*
X014327Y019424D01*
X014521Y019424D01*
X014622Y019327D02*
X014622Y019134D01*
X014622Y019231D02*
X014719Y019327D01*
X014767Y019327D01*
X014916Y019327D02*
X015013Y019327D01*
X015061Y019279D01*
X015061Y019134D01*
X014916Y019134D01*
X014868Y019182D01*
X014916Y019231D01*
X015061Y019231D01*
X015162Y019327D02*
X015307Y019327D01*
X015356Y019279D01*
X015356Y019134D01*
X015457Y019134D02*
X015457Y019424D01*
X015602Y019327D02*
X015457Y019231D01*
X015602Y019134D01*
X015643Y018943D02*
X015643Y018749D01*
X015691Y018701D01*
X015691Y018894D02*
X015594Y018894D01*
X015493Y018846D02*
X015493Y018797D01*
X015299Y018797D01*
X015299Y018749D02*
X015299Y018846D01*
X015348Y018894D01*
X015445Y018894D01*
X015493Y018846D01*
X015445Y018701D02*
X015348Y018701D01*
X015299Y018749D01*
X015199Y018701D02*
X015054Y018797D01*
X015199Y018894D01*
X015054Y018991D02*
X015054Y018701D01*
X014953Y018701D02*
X014808Y018701D01*
X014759Y018749D01*
X014759Y018846D01*
X014808Y018894D01*
X014953Y018894D01*
X015162Y019134D02*
X015162Y019327D01*
X014424Y019279D02*
X014327Y019279D01*
X016587Y018519D02*
X016780Y018519D01*
X008968Y018474D02*
X008968Y018426D01*
X008920Y018377D01*
X008823Y018377D01*
X008775Y018426D01*
X008775Y018474D01*
X008823Y018522D01*
X008920Y018522D01*
X008968Y018474D01*
X008920Y018377D02*
X008968Y018329D01*
X008968Y018281D01*
X008920Y018232D01*
X008823Y018232D01*
X008775Y018281D01*
X008775Y018329D01*
X008823Y018377D01*
X008674Y018377D02*
X008625Y018329D01*
X008480Y018329D01*
X008480Y018232D02*
X008480Y018522D01*
X008625Y018522D01*
X008674Y018474D01*
X008674Y018377D01*
X008577Y018329D02*
X008674Y018232D01*
X007921Y018217D02*
X007873Y018169D01*
X007680Y018169D01*
X007631Y018217D01*
X007631Y018314D01*
X007680Y018363D01*
X007873Y018363D01*
X007921Y018314D01*
X007921Y018217D01*
X007825Y018266D02*
X007921Y018363D01*
X007873Y018464D02*
X007921Y018512D01*
X007921Y018609D01*
X007873Y018657D01*
X007825Y018657D01*
X007776Y018609D01*
X007776Y018560D01*
X007776Y018609D02*
X007728Y018657D01*
X007680Y018657D01*
X007631Y018609D01*
X007631Y018512D01*
X007680Y018464D01*
X007879Y016679D02*
X008024Y016679D01*
X008073Y016630D01*
X008073Y016534D01*
X008024Y016485D01*
X007879Y016485D01*
X007879Y016389D02*
X007879Y016679D01*
X007976Y016485D02*
X008073Y016389D01*
X008174Y016437D02*
X008222Y016389D01*
X008319Y016389D01*
X008367Y016437D01*
X008367Y016630D01*
X008319Y016679D01*
X008222Y016679D01*
X008174Y016630D01*
X008174Y016582D01*
X008222Y016534D01*
X008367Y016534D01*
X007977Y015190D02*
X007977Y014900D01*
X007880Y014900D02*
X008074Y014900D01*
X007880Y015093D02*
X007977Y015190D01*
X007779Y015142D02*
X007779Y014948D01*
X007731Y014900D01*
X007585Y014900D01*
X007585Y015190D01*
X007731Y015190D01*
X007779Y015142D01*
D13*
X010855Y017355D02*
X010855Y012355D01*
X010855Y017355D02*
X014105Y020605D01*
X017105Y020605D01*
X020355Y017355D01*
X020355Y012355D01*
X022878Y026541D02*
X022025Y027064D01*
X021967Y027686D02*
X022359Y028326D01*
X022940Y028556D02*
X023792Y028034D01*
X023851Y027411D02*
X023459Y026772D01*
X020610Y028289D02*
X021050Y029853D01*
X020610Y028289D02*
X017963Y029033D01*
X018403Y030597D01*
D14*
X022409Y027549D02*
X022411Y027593D01*
X022417Y027637D01*
X022427Y027680D01*
X022440Y027722D01*
X022457Y027763D01*
X022478Y027802D01*
X022502Y027839D01*
X022529Y027874D01*
X022559Y027906D01*
X022592Y027936D01*
X022628Y027962D01*
X022665Y027986D01*
X022705Y028005D01*
X022746Y028022D01*
X022789Y028034D01*
X022832Y028043D01*
X022876Y028048D01*
X022920Y028049D01*
X022964Y028046D01*
X023008Y028039D01*
X023051Y028028D01*
X023093Y028014D01*
X023133Y027996D01*
X023172Y027974D01*
X023208Y027950D01*
X023242Y027922D01*
X023274Y027891D01*
X023303Y027857D01*
X023329Y027821D01*
X023351Y027783D01*
X023370Y027743D01*
X023385Y027701D01*
X023397Y027659D01*
X023405Y027615D01*
X023409Y027571D01*
X023409Y027527D01*
X023405Y027483D01*
X023397Y027439D01*
X023385Y027397D01*
X023370Y027355D01*
X023351Y027315D01*
X023329Y027277D01*
X023303Y027241D01*
X023274Y027207D01*
X023242Y027176D01*
X023208Y027148D01*
X023172Y027124D01*
X023133Y027102D01*
X023093Y027084D01*
X023051Y027070D01*
X023008Y027059D01*
X022964Y027052D01*
X022920Y027049D01*
X022876Y027050D01*
X022832Y027055D01*
X022789Y027064D01*
X022746Y027076D01*
X022705Y027093D01*
X022665Y027112D01*
X022628Y027136D01*
X022592Y027162D01*
X022559Y027192D01*
X022529Y027224D01*
X022502Y027259D01*
X022478Y027296D01*
X022457Y027335D01*
X022440Y027376D01*
X022427Y027418D01*
X022417Y027461D01*
X022411Y027505D01*
X022409Y027549D01*
X018080Y022330D02*
X018080Y021905D01*
X017630Y021905D01*
X017630Y022330D01*
X016090Y022249D02*
X016090Y021911D01*
X015711Y021861D02*
X015499Y021861D01*
X015120Y021936D02*
X015120Y022274D01*
X013580Y022330D02*
X013580Y021905D01*
X013130Y021905D01*
X013130Y022330D01*
X010054Y019419D02*
X009739Y019419D01*
X010054Y019419D02*
X010054Y019183D01*
X010054Y018553D02*
X010054Y018317D01*
X009739Y018317D01*
X007928Y017967D02*
X007613Y017967D01*
X007613Y017731D01*
X007613Y017101D02*
X007613Y016865D01*
X007928Y016865D01*
X008007Y015861D02*
X007455Y015861D01*
X007455Y015349D02*
X008007Y015349D01*
X008007Y015861D01*
X008164Y015861D01*
X008164Y015349D02*
X008007Y015349D01*
X010782Y015605D02*
X010788Y015842D01*
X010805Y016078D01*
X010834Y016313D01*
X010875Y016546D01*
X010927Y016777D01*
X010990Y017005D01*
X011064Y017230D01*
X011149Y017451D01*
X011245Y017667D01*
X011351Y017879D01*
X011468Y018085D01*
X011595Y018285D01*
X011731Y018478D01*
X011877Y018665D01*
X012031Y018844D01*
X012195Y019015D01*
X012366Y019179D01*
X012545Y019333D01*
X012732Y019479D01*
X012925Y019615D01*
X013125Y019742D01*
X013331Y019859D01*
X013543Y019965D01*
X013759Y020061D01*
X013980Y020146D01*
X014205Y020220D01*
X014433Y020283D01*
X014664Y020335D01*
X014897Y020376D01*
X015132Y020405D01*
X015368Y020422D01*
X015605Y020428D01*
X015842Y020422D01*
X016078Y020405D01*
X016313Y020376D01*
X016546Y020335D01*
X016777Y020283D01*
X017005Y020220D01*
X017230Y020146D01*
X017451Y020061D01*
X017667Y019965D01*
X017879Y019859D01*
X018085Y019742D01*
X018285Y019615D01*
X018478Y019479D01*
X018665Y019333D01*
X018844Y019179D01*
X019015Y019015D01*
X019179Y018844D01*
X019333Y018665D01*
X019479Y018478D01*
X019615Y018285D01*
X019742Y018085D01*
X019859Y017879D01*
X019965Y017667D01*
X020061Y017451D01*
X020146Y017230D01*
X020220Y017005D01*
X020283Y016777D01*
X020335Y016546D01*
X020376Y016313D01*
X020405Y016078D01*
X020422Y015842D01*
X020428Y015605D01*
X020422Y015368D01*
X020405Y015132D01*
X020376Y014897D01*
X020335Y014664D01*
X020283Y014433D01*
X020220Y014205D01*
X020146Y013980D01*
X020061Y013759D01*
X019965Y013543D01*
X019859Y013331D01*
X019742Y013125D01*
X019615Y012925D01*
X019479Y012732D01*
X019333Y012545D01*
X019179Y012366D01*
X019015Y012195D01*
X018844Y012031D01*
X018665Y011877D01*
X018478Y011731D01*
X018285Y011595D01*
X018085Y011468D01*
X017879Y011351D01*
X017667Y011245D01*
X017451Y011149D01*
X017230Y011064D01*
X017005Y010990D01*
X016777Y010927D01*
X016546Y010875D01*
X016313Y010834D01*
X016078Y010805D01*
X015842Y010788D01*
X015605Y010782D01*
X015368Y010788D01*
X015132Y010805D01*
X014897Y010834D01*
X014664Y010875D01*
X014433Y010927D01*
X014205Y010990D01*
X013980Y011064D01*
X013759Y011149D01*
X013543Y011245D01*
X013331Y011351D01*
X013125Y011468D01*
X012925Y011595D01*
X012732Y011731D01*
X012545Y011877D01*
X012366Y012031D01*
X012195Y012195D01*
X012031Y012366D01*
X011877Y012545D01*
X011731Y012732D01*
X011595Y012925D01*
X011468Y013125D01*
X011351Y013331D01*
X011245Y013543D01*
X011149Y013759D01*
X011064Y013980D01*
X010990Y014205D01*
X010927Y014433D01*
X010875Y014664D01*
X010834Y014897D01*
X010805Y015132D01*
X010788Y015368D01*
X010782Y015605D01*
D15*
X009812Y019610D02*
X009719Y019610D01*
X009672Y019656D01*
X009565Y019656D02*
X009565Y019890D01*
X009672Y019843D02*
X009719Y019890D01*
X009812Y019890D01*
X009859Y019843D01*
X009859Y019796D01*
X009812Y019750D01*
X009859Y019703D01*
X009859Y019656D01*
X009812Y019610D01*
X009812Y019750D02*
X009766Y019750D01*
X009565Y019656D02*
X009518Y019610D01*
X009424Y019610D01*
X009378Y019656D01*
X009378Y019890D01*
X012621Y021992D02*
X012668Y021945D01*
X012854Y021945D01*
X012901Y021992D01*
X012901Y022085D01*
X012854Y022132D01*
X012854Y022240D02*
X012901Y022286D01*
X012901Y022380D01*
X012854Y022427D01*
X012761Y022427D01*
X012714Y022380D01*
X012714Y022333D01*
X012761Y022240D01*
X012621Y022240D01*
X012621Y022427D01*
X012668Y022132D02*
X012621Y022085D01*
X012621Y021992D01*
X014200Y022850D02*
X014200Y023130D01*
X014340Y023130D01*
X014387Y023084D01*
X014387Y022990D01*
X014340Y022943D01*
X014200Y022943D01*
X014293Y022943D02*
X014387Y022850D01*
X014495Y022850D02*
X014495Y022897D01*
X014681Y023084D01*
X014681Y023130D01*
X014495Y023130D01*
X016250Y023350D02*
X016437Y023350D01*
X016545Y023350D02*
X016545Y023630D01*
X016731Y023630D01*
X016839Y023630D02*
X016979Y023630D01*
X017026Y023584D01*
X017026Y023397D01*
X016979Y023350D01*
X016839Y023350D01*
X016839Y023630D01*
X016638Y023490D02*
X016545Y023490D01*
X016545Y023350D02*
X016731Y023350D01*
X016751Y023160D02*
X016798Y023114D01*
X016798Y023020D01*
X016751Y022973D01*
X016611Y022973D01*
X016611Y022880D02*
X016611Y023160D01*
X016751Y023160D01*
X016704Y022973D02*
X016798Y022880D01*
X016905Y022927D02*
X016952Y022880D01*
X017045Y022880D01*
X017092Y022927D01*
X017092Y022973D01*
X017045Y023020D01*
X016905Y023020D01*
X016905Y022927D01*
X016905Y023020D02*
X016999Y023114D01*
X017092Y023160D01*
X017134Y023490D02*
X017321Y023490D01*
X017429Y023397D02*
X017475Y023350D01*
X017569Y023350D01*
X017615Y023397D01*
X017723Y023350D02*
X017723Y023630D01*
X017615Y023584D02*
X017569Y023630D01*
X017475Y023630D01*
X017429Y023584D01*
X017429Y023397D01*
X017723Y023490D02*
X017910Y023490D01*
X017910Y023630D02*
X017910Y023350D01*
X018018Y023397D02*
X018065Y023350D01*
X018158Y023350D01*
X018205Y023397D01*
X018205Y023490D01*
X018111Y023490D01*
X018018Y023397D02*
X018018Y023584D01*
X018065Y023630D01*
X018158Y023630D01*
X018205Y023584D01*
X018346Y022385D02*
X018393Y022291D01*
X018486Y022198D01*
X018486Y022338D01*
X018533Y022385D01*
X018580Y022385D01*
X018626Y022338D01*
X018626Y022244D01*
X018580Y022198D01*
X018486Y022198D01*
X018393Y022090D02*
X018346Y022043D01*
X018346Y021950D01*
X018393Y021903D01*
X018580Y021903D01*
X018626Y021950D01*
X018626Y022043D01*
X018580Y022090D01*
X016250Y023350D02*
X016250Y023630D01*
X014870Y021260D02*
X014777Y021260D01*
X014730Y021214D01*
X014623Y021260D02*
X014623Y021027D01*
X014576Y020980D01*
X014482Y020980D01*
X014436Y021027D01*
X014436Y021260D01*
X014730Y020980D02*
X014917Y021167D01*
X014917Y021214D01*
X014870Y021260D01*
X014917Y020980D02*
X014730Y020980D01*
X015121Y016985D02*
X015262Y016985D01*
X015308Y016939D01*
X015308Y016892D01*
X015262Y016845D01*
X015121Y016845D01*
X015121Y016705D02*
X015262Y016705D01*
X015308Y016752D01*
X015308Y016798D01*
X015262Y016845D01*
X015416Y016845D02*
X015603Y016845D01*
X015603Y016892D02*
X015603Y016705D01*
X015603Y016892D02*
X015509Y016985D01*
X015416Y016892D01*
X015416Y016705D01*
X015121Y016705D02*
X015121Y016985D01*
X015711Y016985D02*
X015898Y016985D01*
X015804Y016985D02*
X015804Y016705D01*
X016005Y016705D02*
X016192Y016705D01*
X016099Y016705D02*
X016099Y016985D01*
X016005Y016892D01*
X010146Y027953D02*
X010061Y027915D01*
X009999Y027939D01*
X010005Y028044D02*
X009943Y028068D01*
X009924Y028111D01*
X009949Y028172D01*
X010034Y028210D01*
X010096Y028185D01*
X010090Y028081D02*
X010152Y028057D01*
X010170Y028014D01*
X010146Y027953D01*
X010090Y028081D02*
X010005Y028044D01*
X010213Y028186D02*
X010261Y028309D01*
X010374Y028052D01*
X010459Y028089D02*
X010288Y028015D01*
X019322Y029539D02*
X019578Y029758D01*
X019657Y029639D02*
X019772Y029704D01*
X019696Y029434D01*
X019606Y029459D02*
X019786Y029409D01*
X019502Y029489D02*
X019398Y029809D01*
D16*
X016855Y022105D03*
X014355Y022105D03*
D17*
X015654Y023605D03*
D18*
X017855Y021968D03*
X013355Y021968D03*
D19*
X009188Y017810D03*
X009188Y017022D03*
M02*
