G75*
G70*
%OFA0B0*%
%FSLAX24Y24*%
%IPPOS*%
%LPD*%
%AMOC8*
5,1,8,0,0,1.08239X$1,22.5*
%
%ADD10C,0.0050*%
%ADD11C,0.0000*%
D10*
X004605Y022052D02*
X004303Y021507D01*
X004029Y020948D01*
X003781Y020376D01*
X003562Y019793D01*
X003372Y019200D01*
X003211Y018598D01*
X003080Y017989D01*
X002978Y017375D01*
X002907Y016756D01*
X002866Y016134D01*
X002855Y015512D01*
X002875Y014889D01*
X002925Y014268D01*
X003006Y013651D01*
X003116Y013038D01*
X003256Y012431D01*
X003426Y011831D01*
X003625Y011241D01*
X003852Y010661D01*
X004108Y010093D01*
X004391Y009538D01*
X004701Y008998D01*
X005036Y008473D01*
X005397Y007965D01*
X005782Y007476D01*
X006191Y007006D01*
X006622Y006556D01*
X007075Y006129D01*
X007548Y005723D01*
X008040Y005342D01*
X008551Y004984D01*
X009078Y004653D01*
X009620Y004347D01*
X010177Y004068D01*
X010747Y003817D01*
X011329Y003593D01*
X011921Y003399D01*
X012521Y003234D01*
X013129Y003098D01*
X013743Y002992D01*
X014361Y002916D01*
X014982Y002870D01*
X015605Y002855D01*
X016228Y002870D01*
X016849Y002916D01*
X017467Y002992D01*
X018081Y003098D01*
X018689Y003234D01*
X019289Y003399D01*
X019881Y003593D01*
X020463Y003817D01*
X021033Y004068D01*
X021590Y004347D01*
X022132Y004653D01*
X022659Y004984D01*
X023170Y005342D01*
X023662Y005723D01*
X024135Y006129D01*
X024588Y006556D01*
X025019Y007006D01*
X025428Y007476D01*
X025813Y007965D01*
X026174Y008473D01*
X026509Y008998D01*
X026819Y009538D01*
X027102Y010093D01*
X027358Y010661D01*
X027585Y011241D01*
X027784Y011831D01*
X027954Y012431D01*
X028094Y013038D01*
X028204Y013651D01*
X028285Y014268D01*
X028335Y014889D01*
X028355Y015512D01*
X028344Y016134D01*
X028303Y016756D01*
X028232Y017375D01*
X028130Y017989D01*
X027999Y018598D01*
X027838Y019200D01*
X027648Y019793D01*
X027429Y020376D01*
X027181Y020948D01*
X026907Y021507D01*
X026605Y022052D01*
X026605Y025480D01*
X026601Y025595D01*
X026592Y025710D01*
X026577Y025824D01*
X026557Y025937D01*
X026532Y026050D01*
X026502Y026161D01*
X026466Y026270D01*
X026426Y026378D01*
X026381Y026484D01*
X026331Y026587D01*
X026276Y026688D01*
X026216Y026787D01*
X026153Y026882D01*
X026084Y026975D01*
X026012Y027064D01*
X025935Y027150D01*
X025855Y027232D01*
X025283Y027712D01*
X024689Y028164D01*
X024074Y028587D01*
X023439Y028980D01*
X022786Y029341D01*
X022116Y029671D01*
X021431Y029968D01*
X020733Y030232D01*
X020023Y030462D01*
X019302Y030658D01*
X018573Y030818D01*
X017837Y030943D01*
X017096Y031033D01*
X016351Y031087D01*
X015605Y031105D01*
X014859Y031087D01*
X014114Y031033D01*
X013373Y030943D01*
X012637Y030818D01*
X011908Y030658D01*
X011187Y030462D01*
X010477Y030232D01*
X009779Y029968D01*
X009094Y029671D01*
X008424Y029341D01*
X007771Y028980D01*
X007136Y028587D01*
X006521Y028164D01*
X005927Y027712D01*
X005355Y027232D01*
X004605Y025355D02*
X004605Y022052D01*
X004605Y025355D02*
X004606Y025477D01*
X004613Y025599D01*
X004626Y025720D01*
X004644Y025841D01*
X004668Y025960D01*
X004697Y026079D01*
X004732Y026196D01*
X004772Y026311D01*
X004817Y026424D01*
X004867Y026535D01*
X004923Y026644D01*
X004983Y026750D01*
X005049Y026853D01*
X005119Y026953D01*
X005193Y027050D01*
X005272Y027143D01*
X005355Y027232D01*
D11*
X009064Y026549D02*
X009066Y026580D01*
X009072Y026611D01*
X009081Y026641D01*
X009094Y026670D01*
X009111Y026697D01*
X009131Y026721D01*
X009153Y026743D01*
X009179Y026762D01*
X009206Y026778D01*
X009235Y026790D01*
X009265Y026799D01*
X009296Y026804D01*
X009328Y026805D01*
X009359Y026802D01*
X009390Y026795D01*
X009420Y026785D01*
X009448Y026771D01*
X009474Y026753D01*
X009498Y026733D01*
X009519Y026709D01*
X009538Y026684D01*
X009553Y026656D01*
X009564Y026627D01*
X009572Y026596D01*
X009576Y026565D01*
X009576Y026533D01*
X009572Y026502D01*
X009564Y026471D01*
X009553Y026442D01*
X009538Y026414D01*
X009519Y026389D01*
X009498Y026365D01*
X009474Y026345D01*
X009448Y026327D01*
X009420Y026313D01*
X009390Y026303D01*
X009359Y026296D01*
X009328Y026293D01*
X009296Y026294D01*
X009265Y026299D01*
X009235Y026308D01*
X009206Y026320D01*
X009179Y026336D01*
X009153Y026355D01*
X009131Y026377D01*
X009111Y026401D01*
X009094Y026428D01*
X009081Y026457D01*
X009072Y026487D01*
X009066Y026518D01*
X009064Y026549D01*
X011590Y027653D02*
X011592Y027684D01*
X011598Y027715D01*
X011607Y027745D01*
X011620Y027774D01*
X011637Y027801D01*
X011657Y027825D01*
X011679Y027847D01*
X011705Y027866D01*
X011732Y027882D01*
X011761Y027894D01*
X011791Y027903D01*
X011822Y027908D01*
X011854Y027909D01*
X011885Y027906D01*
X011916Y027899D01*
X011946Y027889D01*
X011974Y027875D01*
X012000Y027857D01*
X012024Y027837D01*
X012045Y027813D01*
X012064Y027788D01*
X012079Y027760D01*
X012090Y027731D01*
X012098Y027700D01*
X012102Y027669D01*
X012102Y027637D01*
X012098Y027606D01*
X012090Y027575D01*
X012079Y027546D01*
X012064Y027518D01*
X012045Y027493D01*
X012024Y027469D01*
X012000Y027449D01*
X011974Y027431D01*
X011946Y027417D01*
X011916Y027407D01*
X011885Y027400D01*
X011854Y027397D01*
X011822Y027398D01*
X011791Y027403D01*
X011761Y027412D01*
X011732Y027424D01*
X011705Y027440D01*
X011679Y027459D01*
X011657Y027481D01*
X011637Y027505D01*
X011620Y027532D01*
X011607Y027561D01*
X011598Y027591D01*
X011592Y027622D01*
X011590Y027653D01*
X014730Y029205D02*
X014732Y029264D01*
X014738Y029323D01*
X014748Y029381D01*
X014762Y029439D01*
X014779Y029495D01*
X014801Y029550D01*
X014826Y029604D01*
X014855Y029655D01*
X014887Y029705D01*
X014922Y029752D01*
X014961Y029797D01*
X015002Y029839D01*
X015046Y029878D01*
X015093Y029915D01*
X015142Y029948D01*
X015193Y029977D01*
X015246Y030003D01*
X015301Y030026D01*
X015357Y030044D01*
X015414Y030059D01*
X015473Y030070D01*
X015531Y030077D01*
X015590Y030080D01*
X015649Y030079D01*
X015708Y030074D01*
X015767Y030065D01*
X015824Y030052D01*
X015881Y030035D01*
X015936Y030015D01*
X015990Y029991D01*
X016042Y029963D01*
X016093Y029932D01*
X016141Y029897D01*
X016186Y029859D01*
X016229Y029818D01*
X016269Y029775D01*
X016306Y029729D01*
X016340Y029680D01*
X016370Y029630D01*
X016397Y029577D01*
X016420Y029523D01*
X016440Y029467D01*
X016456Y029410D01*
X016468Y029352D01*
X016476Y029294D01*
X016480Y029235D01*
X016480Y029175D01*
X016476Y029116D01*
X016468Y029058D01*
X016456Y029000D01*
X016440Y028943D01*
X016420Y028887D01*
X016397Y028833D01*
X016370Y028780D01*
X016340Y028730D01*
X016306Y028681D01*
X016269Y028635D01*
X016229Y028592D01*
X016186Y028551D01*
X016141Y028513D01*
X016093Y028478D01*
X016043Y028447D01*
X015990Y028419D01*
X015936Y028395D01*
X015881Y028375D01*
X015824Y028358D01*
X015767Y028345D01*
X015708Y028336D01*
X015649Y028331D01*
X015590Y028330D01*
X015531Y028333D01*
X015473Y028340D01*
X015414Y028351D01*
X015357Y028366D01*
X015301Y028384D01*
X015246Y028407D01*
X015193Y028433D01*
X015142Y028462D01*
X015093Y028495D01*
X015046Y028532D01*
X015002Y028571D01*
X014961Y028613D01*
X014922Y028658D01*
X014887Y028705D01*
X014855Y028755D01*
X014826Y028806D01*
X014801Y028860D01*
X014779Y028915D01*
X014762Y028971D01*
X014748Y029029D01*
X014738Y029087D01*
X014732Y029146D01*
X014730Y029205D01*
X017712Y030056D02*
X017714Y030091D01*
X017720Y030125D01*
X017730Y030158D01*
X017743Y030191D01*
X017760Y030221D01*
X017781Y030249D01*
X017804Y030275D01*
X017831Y030298D01*
X017859Y030317D01*
X017890Y030333D01*
X017923Y030346D01*
X017956Y030355D01*
X017991Y030360D01*
X018026Y030361D01*
X018060Y030358D01*
X018095Y030351D01*
X018128Y030340D01*
X018159Y030326D01*
X018189Y030308D01*
X018217Y030287D01*
X018242Y030262D01*
X018264Y030235D01*
X018283Y030206D01*
X018298Y030175D01*
X018310Y030142D01*
X018318Y030108D01*
X018322Y030073D01*
X018322Y030039D01*
X018318Y030004D01*
X018310Y029970D01*
X018298Y029937D01*
X018283Y029906D01*
X018264Y029877D01*
X018242Y029850D01*
X018217Y029825D01*
X018189Y029804D01*
X018159Y029786D01*
X018128Y029772D01*
X018095Y029761D01*
X018060Y029754D01*
X018026Y029751D01*
X017991Y029752D01*
X017956Y029757D01*
X017923Y029766D01*
X017890Y029779D01*
X017859Y029795D01*
X017831Y029814D01*
X017804Y029837D01*
X017781Y029863D01*
X017760Y029891D01*
X017743Y029921D01*
X017730Y029954D01*
X017720Y029987D01*
X017714Y030021D01*
X017712Y030056D01*
X018190Y028745D02*
X018192Y028767D01*
X018198Y028789D01*
X018207Y028809D01*
X018220Y028827D01*
X018236Y028843D01*
X018254Y028856D01*
X018274Y028865D01*
X018296Y028871D01*
X018318Y028873D01*
X018340Y028871D01*
X018362Y028865D01*
X018382Y028856D01*
X018400Y028843D01*
X018416Y028827D01*
X018429Y028809D01*
X018438Y028789D01*
X018444Y028767D01*
X018446Y028745D01*
X018444Y028723D01*
X018438Y028701D01*
X018429Y028681D01*
X018416Y028663D01*
X018400Y028647D01*
X018382Y028634D01*
X018362Y028625D01*
X018340Y028619D01*
X018318Y028617D01*
X018296Y028619D01*
X018274Y028625D01*
X018254Y028634D01*
X018236Y028647D01*
X018220Y028663D01*
X018207Y028681D01*
X018198Y028701D01*
X018192Y028723D01*
X018190Y028745D01*
X020029Y028228D02*
X020031Y028250D01*
X020037Y028272D01*
X020046Y028292D01*
X020059Y028310D01*
X020075Y028326D01*
X020093Y028339D01*
X020113Y028348D01*
X020135Y028354D01*
X020157Y028356D01*
X020179Y028354D01*
X020201Y028348D01*
X020221Y028339D01*
X020239Y028326D01*
X020255Y028310D01*
X020268Y028292D01*
X020277Y028272D01*
X020283Y028250D01*
X020285Y028228D01*
X020283Y028206D01*
X020277Y028184D01*
X020268Y028164D01*
X020255Y028146D01*
X020239Y028130D01*
X020221Y028117D01*
X020201Y028108D01*
X020179Y028102D01*
X020157Y028100D01*
X020135Y028102D01*
X020113Y028108D01*
X020093Y028117D01*
X020075Y028130D01*
X020059Y028146D01*
X020046Y028164D01*
X020037Y028184D01*
X020031Y028206D01*
X020029Y028228D01*
X020792Y029190D02*
X020794Y029225D01*
X020800Y029259D01*
X020810Y029292D01*
X020823Y029325D01*
X020840Y029355D01*
X020861Y029383D01*
X020884Y029409D01*
X020911Y029432D01*
X020939Y029451D01*
X020970Y029467D01*
X021003Y029480D01*
X021036Y029489D01*
X021071Y029494D01*
X021106Y029495D01*
X021140Y029492D01*
X021175Y029485D01*
X021208Y029474D01*
X021239Y029460D01*
X021269Y029442D01*
X021297Y029421D01*
X021322Y029396D01*
X021344Y029369D01*
X021363Y029340D01*
X021378Y029309D01*
X021390Y029276D01*
X021398Y029242D01*
X021402Y029207D01*
X021402Y029173D01*
X021398Y029138D01*
X021390Y029104D01*
X021378Y029071D01*
X021363Y029040D01*
X021344Y029011D01*
X021322Y028984D01*
X021297Y028959D01*
X021269Y028938D01*
X021239Y028920D01*
X021208Y028906D01*
X021175Y028895D01*
X021140Y028888D01*
X021106Y028885D01*
X021071Y028886D01*
X021036Y028891D01*
X021003Y028900D01*
X020970Y028913D01*
X020939Y028929D01*
X020911Y028948D01*
X020884Y028971D01*
X020861Y028997D01*
X020840Y029025D01*
X020823Y029055D01*
X020810Y029088D01*
X020800Y029121D01*
X020794Y029155D01*
X020792Y029190D01*
M02*
