G75*
G70*
%OFA0B0*%
%FSLAX24Y24*%
%IPPOS*%
%LPD*%
%AMOC8*
5,1,8,0,0,1.08239X$1,22.5*
%
%ADD10C,0.0050*%
%ADD11C,0.0000*%
%ADD12C,0.1830*%
%ADD13R,0.0430X0.0430*%
%ADD14R,0.0450X0.0450*%
%ADD15R,0.0430X0.0430*%
%ADD16R,0.0450X0.0450*%
%ADD17R,0.0280X0.0550*%
%ADD18R,0.0550X0.0280*%
%ADD19R,0.0474X0.0513*%
%ADD20R,0.0513X0.0474*%
%ADD21C,0.0592*%
%ADD22C,0.0671*%
%ADD23R,0.0680X0.0680*%
%ADD24OC8,0.0680*%
%ADD25R,0.0946X0.0880*%
%ADD26C,0.0336*%
%ADD27C,0.0690*%
%ADD28R,0.1261X0.0769*%
D10*
X004605Y022052D02*
X004303Y021507D01*
X004029Y020948D01*
X003781Y020376D01*
X003562Y019793D01*
X003372Y019200D01*
X003211Y018598D01*
X003080Y017989D01*
X002978Y017375D01*
X002907Y016756D01*
X002866Y016134D01*
X002855Y015512D01*
X002875Y014889D01*
X002925Y014268D01*
X003006Y013651D01*
X003116Y013038D01*
X003256Y012431D01*
X003426Y011831D01*
X003625Y011241D01*
X003852Y010661D01*
X004108Y010093D01*
X004391Y009538D01*
X004701Y008998D01*
X005036Y008473D01*
X005397Y007965D01*
X005782Y007476D01*
X006191Y007006D01*
X006622Y006556D01*
X007075Y006129D01*
X007548Y005723D01*
X008040Y005342D01*
X008551Y004984D01*
X009078Y004653D01*
X009620Y004347D01*
X010177Y004068D01*
X010747Y003817D01*
X011329Y003593D01*
X011921Y003399D01*
X012521Y003234D01*
X013129Y003098D01*
X013743Y002992D01*
X014361Y002916D01*
X014982Y002870D01*
X015605Y002855D01*
X016228Y002870D01*
X016849Y002916D01*
X017467Y002992D01*
X018081Y003098D01*
X018689Y003234D01*
X019289Y003399D01*
X019881Y003593D01*
X020463Y003817D01*
X021033Y004068D01*
X021590Y004347D01*
X022132Y004653D01*
X022659Y004984D01*
X023170Y005342D01*
X023662Y005723D01*
X024135Y006129D01*
X024588Y006556D01*
X025019Y007006D01*
X025428Y007476D01*
X025813Y007965D01*
X026174Y008473D01*
X026509Y008998D01*
X026819Y009538D01*
X027102Y010093D01*
X027358Y010661D01*
X027585Y011241D01*
X027784Y011831D01*
X027954Y012431D01*
X028094Y013038D01*
X028204Y013651D01*
X028285Y014268D01*
X028335Y014889D01*
X028355Y015512D01*
X028344Y016134D01*
X028303Y016756D01*
X028232Y017375D01*
X028130Y017989D01*
X027999Y018598D01*
X027838Y019200D01*
X027648Y019793D01*
X027429Y020376D01*
X027181Y020948D01*
X026907Y021507D01*
X026605Y022052D01*
X026605Y025480D01*
X026601Y025595D01*
X026592Y025710D01*
X026577Y025824D01*
X026557Y025937D01*
X026532Y026050D01*
X026502Y026161D01*
X026466Y026270D01*
X026426Y026378D01*
X026381Y026484D01*
X026331Y026587D01*
X026276Y026688D01*
X026216Y026787D01*
X026153Y026882D01*
X026084Y026975D01*
X026012Y027064D01*
X025935Y027150D01*
X025855Y027232D01*
X025283Y027712D01*
X024689Y028164D01*
X024074Y028587D01*
X023439Y028980D01*
X022786Y029341D01*
X022116Y029671D01*
X021431Y029968D01*
X020733Y030232D01*
X020023Y030462D01*
X019302Y030658D01*
X018573Y030818D01*
X017837Y030943D01*
X017096Y031033D01*
X016351Y031087D01*
X015605Y031105D01*
X014859Y031087D01*
X014114Y031033D01*
X013373Y030943D01*
X012637Y030818D01*
X011908Y030658D01*
X011187Y030462D01*
X010477Y030232D01*
X009779Y029968D01*
X009094Y029671D01*
X008424Y029341D01*
X007771Y028980D01*
X007136Y028587D01*
X006521Y028164D01*
X005927Y027712D01*
X005355Y027232D01*
X004605Y025355D02*
X004605Y022052D01*
X004605Y025355D02*
X004606Y025477D01*
X004613Y025599D01*
X004626Y025720D01*
X004644Y025841D01*
X004668Y025960D01*
X004697Y026079D01*
X004732Y026196D01*
X004772Y026311D01*
X004817Y026424D01*
X004867Y026535D01*
X004923Y026644D01*
X004983Y026750D01*
X005049Y026853D01*
X005119Y026953D01*
X005193Y027050D01*
X005272Y027143D01*
X005355Y027232D01*
D11*
X009064Y026549D02*
X009066Y026580D01*
X009072Y026611D01*
X009081Y026641D01*
X009094Y026670D01*
X009111Y026697D01*
X009131Y026721D01*
X009153Y026743D01*
X009179Y026762D01*
X009206Y026778D01*
X009235Y026790D01*
X009265Y026799D01*
X009296Y026804D01*
X009328Y026805D01*
X009359Y026802D01*
X009390Y026795D01*
X009420Y026785D01*
X009448Y026771D01*
X009474Y026753D01*
X009498Y026733D01*
X009519Y026709D01*
X009538Y026684D01*
X009553Y026656D01*
X009564Y026627D01*
X009572Y026596D01*
X009576Y026565D01*
X009576Y026533D01*
X009572Y026502D01*
X009564Y026471D01*
X009553Y026442D01*
X009538Y026414D01*
X009519Y026389D01*
X009498Y026365D01*
X009474Y026345D01*
X009448Y026327D01*
X009420Y026313D01*
X009390Y026303D01*
X009359Y026296D01*
X009328Y026293D01*
X009296Y026294D01*
X009265Y026299D01*
X009235Y026308D01*
X009206Y026320D01*
X009179Y026336D01*
X009153Y026355D01*
X009131Y026377D01*
X009111Y026401D01*
X009094Y026428D01*
X009081Y026457D01*
X009072Y026487D01*
X009066Y026518D01*
X009064Y026549D01*
X011590Y027653D02*
X011592Y027684D01*
X011598Y027715D01*
X011607Y027745D01*
X011620Y027774D01*
X011637Y027801D01*
X011657Y027825D01*
X011679Y027847D01*
X011705Y027866D01*
X011732Y027882D01*
X011761Y027894D01*
X011791Y027903D01*
X011822Y027908D01*
X011854Y027909D01*
X011885Y027906D01*
X011916Y027899D01*
X011946Y027889D01*
X011974Y027875D01*
X012000Y027857D01*
X012024Y027837D01*
X012045Y027813D01*
X012064Y027788D01*
X012079Y027760D01*
X012090Y027731D01*
X012098Y027700D01*
X012102Y027669D01*
X012102Y027637D01*
X012098Y027606D01*
X012090Y027575D01*
X012079Y027546D01*
X012064Y027518D01*
X012045Y027493D01*
X012024Y027469D01*
X012000Y027449D01*
X011974Y027431D01*
X011946Y027417D01*
X011916Y027407D01*
X011885Y027400D01*
X011854Y027397D01*
X011822Y027398D01*
X011791Y027403D01*
X011761Y027412D01*
X011732Y027424D01*
X011705Y027440D01*
X011679Y027459D01*
X011657Y027481D01*
X011637Y027505D01*
X011620Y027532D01*
X011607Y027561D01*
X011598Y027591D01*
X011592Y027622D01*
X011590Y027653D01*
X014730Y029205D02*
X014732Y029264D01*
X014738Y029323D01*
X014748Y029381D01*
X014762Y029439D01*
X014779Y029495D01*
X014801Y029550D01*
X014826Y029604D01*
X014855Y029655D01*
X014887Y029705D01*
X014922Y029752D01*
X014961Y029797D01*
X015002Y029839D01*
X015046Y029878D01*
X015093Y029915D01*
X015142Y029948D01*
X015193Y029977D01*
X015246Y030003D01*
X015301Y030026D01*
X015357Y030044D01*
X015414Y030059D01*
X015473Y030070D01*
X015531Y030077D01*
X015590Y030080D01*
X015649Y030079D01*
X015708Y030074D01*
X015767Y030065D01*
X015824Y030052D01*
X015881Y030035D01*
X015936Y030015D01*
X015990Y029991D01*
X016042Y029963D01*
X016093Y029932D01*
X016141Y029897D01*
X016186Y029859D01*
X016229Y029818D01*
X016269Y029775D01*
X016306Y029729D01*
X016340Y029680D01*
X016370Y029630D01*
X016397Y029577D01*
X016420Y029523D01*
X016440Y029467D01*
X016456Y029410D01*
X016468Y029352D01*
X016476Y029294D01*
X016480Y029235D01*
X016480Y029175D01*
X016476Y029116D01*
X016468Y029058D01*
X016456Y029000D01*
X016440Y028943D01*
X016420Y028887D01*
X016397Y028833D01*
X016370Y028780D01*
X016340Y028730D01*
X016306Y028681D01*
X016269Y028635D01*
X016229Y028592D01*
X016186Y028551D01*
X016141Y028513D01*
X016093Y028478D01*
X016043Y028447D01*
X015990Y028419D01*
X015936Y028395D01*
X015881Y028375D01*
X015824Y028358D01*
X015767Y028345D01*
X015708Y028336D01*
X015649Y028331D01*
X015590Y028330D01*
X015531Y028333D01*
X015473Y028340D01*
X015414Y028351D01*
X015357Y028366D01*
X015301Y028384D01*
X015246Y028407D01*
X015193Y028433D01*
X015142Y028462D01*
X015093Y028495D01*
X015046Y028532D01*
X015002Y028571D01*
X014961Y028613D01*
X014922Y028658D01*
X014887Y028705D01*
X014855Y028755D01*
X014826Y028806D01*
X014801Y028860D01*
X014779Y028915D01*
X014762Y028971D01*
X014748Y029029D01*
X014738Y029087D01*
X014732Y029146D01*
X014730Y029205D01*
X017712Y030056D02*
X017714Y030091D01*
X017720Y030125D01*
X017730Y030158D01*
X017743Y030191D01*
X017760Y030221D01*
X017781Y030249D01*
X017804Y030275D01*
X017831Y030298D01*
X017859Y030317D01*
X017890Y030333D01*
X017923Y030346D01*
X017956Y030355D01*
X017991Y030360D01*
X018026Y030361D01*
X018060Y030358D01*
X018095Y030351D01*
X018128Y030340D01*
X018159Y030326D01*
X018189Y030308D01*
X018217Y030287D01*
X018242Y030262D01*
X018264Y030235D01*
X018283Y030206D01*
X018298Y030175D01*
X018310Y030142D01*
X018318Y030108D01*
X018322Y030073D01*
X018322Y030039D01*
X018318Y030004D01*
X018310Y029970D01*
X018298Y029937D01*
X018283Y029906D01*
X018264Y029877D01*
X018242Y029850D01*
X018217Y029825D01*
X018189Y029804D01*
X018159Y029786D01*
X018128Y029772D01*
X018095Y029761D01*
X018060Y029754D01*
X018026Y029751D01*
X017991Y029752D01*
X017956Y029757D01*
X017923Y029766D01*
X017890Y029779D01*
X017859Y029795D01*
X017831Y029814D01*
X017804Y029837D01*
X017781Y029863D01*
X017760Y029891D01*
X017743Y029921D01*
X017730Y029954D01*
X017720Y029987D01*
X017714Y030021D01*
X017712Y030056D01*
X018190Y028745D02*
X018192Y028767D01*
X018198Y028789D01*
X018207Y028809D01*
X018220Y028827D01*
X018236Y028843D01*
X018254Y028856D01*
X018274Y028865D01*
X018296Y028871D01*
X018318Y028873D01*
X018340Y028871D01*
X018362Y028865D01*
X018382Y028856D01*
X018400Y028843D01*
X018416Y028827D01*
X018429Y028809D01*
X018438Y028789D01*
X018444Y028767D01*
X018446Y028745D01*
X018444Y028723D01*
X018438Y028701D01*
X018429Y028681D01*
X018416Y028663D01*
X018400Y028647D01*
X018382Y028634D01*
X018362Y028625D01*
X018340Y028619D01*
X018318Y028617D01*
X018296Y028619D01*
X018274Y028625D01*
X018254Y028634D01*
X018236Y028647D01*
X018220Y028663D01*
X018207Y028681D01*
X018198Y028701D01*
X018192Y028723D01*
X018190Y028745D01*
X020029Y028228D02*
X020031Y028250D01*
X020037Y028272D01*
X020046Y028292D01*
X020059Y028310D01*
X020075Y028326D01*
X020093Y028339D01*
X020113Y028348D01*
X020135Y028354D01*
X020157Y028356D01*
X020179Y028354D01*
X020201Y028348D01*
X020221Y028339D01*
X020239Y028326D01*
X020255Y028310D01*
X020268Y028292D01*
X020277Y028272D01*
X020283Y028250D01*
X020285Y028228D01*
X020283Y028206D01*
X020277Y028184D01*
X020268Y028164D01*
X020255Y028146D01*
X020239Y028130D01*
X020221Y028117D01*
X020201Y028108D01*
X020179Y028102D01*
X020157Y028100D01*
X020135Y028102D01*
X020113Y028108D01*
X020093Y028117D01*
X020075Y028130D01*
X020059Y028146D01*
X020046Y028164D01*
X020037Y028184D01*
X020031Y028206D01*
X020029Y028228D01*
X020792Y029190D02*
X020794Y029225D01*
X020800Y029259D01*
X020810Y029292D01*
X020823Y029325D01*
X020840Y029355D01*
X020861Y029383D01*
X020884Y029409D01*
X020911Y029432D01*
X020939Y029451D01*
X020970Y029467D01*
X021003Y029480D01*
X021036Y029489D01*
X021071Y029494D01*
X021106Y029495D01*
X021140Y029492D01*
X021175Y029485D01*
X021208Y029474D01*
X021239Y029460D01*
X021269Y029442D01*
X021297Y029421D01*
X021322Y029396D01*
X021344Y029369D01*
X021363Y029340D01*
X021378Y029309D01*
X021390Y029276D01*
X021398Y029242D01*
X021402Y029207D01*
X021402Y029173D01*
X021398Y029138D01*
X021390Y029104D01*
X021378Y029071D01*
X021363Y029040D01*
X021344Y029011D01*
X021322Y028984D01*
X021297Y028959D01*
X021269Y028938D01*
X021239Y028920D01*
X021208Y028906D01*
X021175Y028895D01*
X021140Y028888D01*
X021106Y028885D01*
X021071Y028886D01*
X021036Y028891D01*
X021003Y028900D01*
X020970Y028913D01*
X020939Y028929D01*
X020911Y028948D01*
X020884Y028971D01*
X020861Y028997D01*
X020840Y029025D01*
X020823Y029055D01*
X020810Y029088D01*
X020800Y029121D01*
X020794Y029155D01*
X020792Y029190D01*
D12*
X015605Y029205D03*
D13*
X015605Y027400D03*
X015605Y026275D03*
X015605Y025150D03*
X006060Y015605D03*
X005525Y015605D03*
X004400Y015605D03*
X015605Y006060D03*
X015605Y004935D03*
X015605Y003810D03*
X025150Y015605D03*
X025685Y015605D03*
X026810Y015605D03*
D14*
X026280Y015605D03*
X027405Y015605D03*
X024555Y015605D03*
X015605Y006655D03*
X015605Y005530D03*
X015605Y004405D03*
X006655Y015605D03*
X004930Y015605D03*
X003805Y015605D03*
X015605Y024555D03*
X015605Y025680D03*
X015605Y026805D03*
D15*
G36*
X016585Y026984D02*
X017012Y026939D01*
X016967Y026512D01*
X016540Y026557D01*
X016585Y026984D01*
G37*
G36*
X016468Y025865D02*
X016895Y025820D01*
X016850Y025393D01*
X016423Y025438D01*
X016468Y025865D01*
G37*
G36*
X017988Y025787D02*
X017568Y025877D01*
X017658Y026297D01*
X018078Y026207D01*
X017988Y025787D01*
G37*
G36*
X018582Y025461D02*
X018990Y025329D01*
X018858Y024921D01*
X018450Y025053D01*
X018582Y025461D01*
G37*
G36*
X018929Y026531D02*
X019337Y026399D01*
X019205Y025991D01*
X018797Y026123D01*
X018929Y026531D01*
G37*
G36*
X018222Y026888D02*
X017802Y026978D01*
X017892Y027398D01*
X018312Y027308D01*
X018222Y026888D01*
G37*
G36*
X020053Y025070D02*
X019662Y025245D01*
X019837Y025636D01*
X020228Y025461D01*
X020053Y025070D01*
G37*
G36*
X020567Y024627D02*
X020938Y024412D01*
X020723Y024041D01*
X020352Y024256D01*
X020567Y024627D01*
G37*
G36*
X020456Y023578D02*
X020085Y023793D01*
X020300Y024164D01*
X020671Y023949D01*
X020456Y023578D01*
G37*
G36*
X021924Y023937D02*
X021577Y024190D01*
X021830Y024537D01*
X022177Y024284D01*
X021924Y023937D01*
G37*
G36*
X022335Y023399D02*
X022653Y023111D01*
X022365Y022793D01*
X022047Y023081D01*
X022335Y023399D01*
G37*
G36*
X023087Y024235D02*
X023405Y023947D01*
X023117Y023629D01*
X022799Y023917D01*
X023087Y024235D01*
G37*
G36*
X022585Y024848D02*
X022238Y025101D01*
X022491Y025448D01*
X022838Y025195D01*
X022585Y024848D01*
G37*
G36*
X021129Y025602D02*
X021500Y025387D01*
X021285Y025016D01*
X020914Y025231D01*
X021129Y025602D01*
G37*
G36*
X020511Y026098D02*
X020120Y026273D01*
X020295Y026664D01*
X020686Y026489D01*
X020511Y026098D01*
G37*
G36*
X023520Y022442D02*
X023232Y022760D01*
X023550Y023048D01*
X023838Y022730D01*
X023520Y022442D01*
G37*
G36*
X023807Y021830D02*
X024060Y021483D01*
X023713Y021230D01*
X023460Y021577D01*
X023807Y021830D01*
G37*
G36*
X024717Y022491D02*
X024970Y022144D01*
X024623Y021891D01*
X024370Y022238D01*
X024717Y022491D01*
G37*
G36*
X024356Y023195D02*
X024068Y023513D01*
X024386Y023801D01*
X024674Y023483D01*
X024356Y023195D01*
G37*
G36*
X025742Y021210D02*
X025527Y021581D01*
X025898Y021796D01*
X026113Y021425D01*
X025742Y021210D01*
G37*
G36*
X024768Y020647D02*
X024553Y021018D01*
X024924Y021233D01*
X025139Y020862D01*
X024768Y020647D01*
G37*
G36*
X023793Y020085D02*
X023578Y020456D01*
X023949Y020671D01*
X024164Y020300D01*
X023793Y020085D01*
G37*
G36*
X024921Y019988D02*
X025096Y019597D01*
X024705Y019422D01*
X024530Y019813D01*
X024921Y019988D01*
G37*
G36*
X025949Y020445D02*
X026124Y020054D01*
X025733Y019879D01*
X025558Y020270D01*
X025949Y020445D01*
G37*
G36*
X026685Y018980D02*
X026553Y019388D01*
X026961Y019520D01*
X027093Y019112D01*
X026685Y018980D01*
G37*
G36*
X025615Y018632D02*
X025483Y019040D01*
X025891Y019172D01*
X026023Y018764D01*
X025615Y018632D01*
G37*
G36*
X025629Y017956D02*
X025719Y017536D01*
X025299Y017446D01*
X025209Y017866D01*
X025629Y017956D01*
G37*
G36*
X026730Y018190D02*
X026820Y017770D01*
X026400Y017680D01*
X026310Y018100D01*
X026730Y018190D01*
G37*
G36*
X027145Y016602D02*
X027100Y017029D01*
X027527Y017074D01*
X027572Y016647D01*
X027145Y016602D01*
G37*
G36*
X026026Y016484D02*
X025981Y016911D01*
X026408Y016956D01*
X026453Y016529D01*
X026026Y016484D01*
G37*
G36*
X025981Y014299D02*
X026026Y014726D01*
X026453Y014681D01*
X026408Y014254D01*
X025981Y014299D01*
G37*
G36*
X025719Y013674D02*
X025629Y013254D01*
X025209Y013344D01*
X025299Y013764D01*
X025719Y013674D01*
G37*
G36*
X026820Y013440D02*
X026730Y013020D01*
X026310Y013110D01*
X026400Y013530D01*
X026820Y013440D01*
G37*
G36*
X027100Y014181D02*
X027145Y014608D01*
X027572Y014563D01*
X027527Y014136D01*
X027100Y014181D01*
G37*
G36*
X025483Y012170D02*
X025615Y012578D01*
X026023Y012446D01*
X025891Y012038D01*
X025483Y012170D01*
G37*
G36*
X025096Y011613D02*
X024921Y011222D01*
X024530Y011397D01*
X024705Y011788D01*
X025096Y011613D01*
G37*
G36*
X026124Y011156D02*
X025949Y010765D01*
X025558Y010940D01*
X025733Y011331D01*
X026124Y011156D01*
G37*
G36*
X026553Y011822D02*
X026685Y012230D01*
X027093Y012098D01*
X026961Y011690D01*
X026553Y011822D01*
G37*
G36*
X024553Y010192D02*
X024768Y010563D01*
X025139Y010348D01*
X024924Y009977D01*
X024553Y010192D01*
G37*
G36*
X023578Y010754D02*
X023793Y011125D01*
X024164Y010910D01*
X023949Y010539D01*
X023578Y010754D01*
G37*
G36*
X024060Y009727D02*
X023807Y009380D01*
X023460Y009633D01*
X023713Y009980D01*
X024060Y009727D01*
G37*
G36*
X024970Y009066D02*
X024717Y008719D01*
X024370Y008972D01*
X024623Y009319D01*
X024970Y009066D01*
G37*
G36*
X025527Y009629D02*
X025742Y010000D01*
X026113Y009785D01*
X025898Y009414D01*
X025527Y009629D01*
G37*
G36*
X024068Y007697D02*
X024356Y008015D01*
X024674Y007727D01*
X024386Y007409D01*
X024068Y007697D01*
G37*
G36*
X023232Y008450D02*
X023520Y008768D01*
X023838Y008480D01*
X023550Y008162D01*
X023232Y008450D01*
G37*
G36*
X022653Y008099D02*
X022335Y007811D01*
X022047Y008129D01*
X022365Y008417D01*
X022653Y008099D01*
G37*
G36*
X023405Y007263D02*
X023087Y006975D01*
X022799Y007293D01*
X023117Y007581D01*
X023405Y007263D01*
G37*
G36*
X022238Y006109D02*
X022585Y006362D01*
X022838Y006015D01*
X022491Y005762D01*
X022238Y006109D01*
G37*
G36*
X021577Y007020D02*
X021924Y007273D01*
X022177Y006926D01*
X021830Y006673D01*
X021577Y007020D01*
G37*
G36*
X020938Y006798D02*
X020567Y006583D01*
X020352Y006954D01*
X020723Y007169D01*
X020938Y006798D01*
G37*
G36*
X020085Y007417D02*
X020456Y007632D01*
X020671Y007261D01*
X020300Y007046D01*
X020085Y007417D01*
G37*
G36*
X019662Y005965D02*
X020053Y006140D01*
X020228Y005749D01*
X019837Y005574D01*
X019662Y005965D01*
G37*
G36*
X018990Y005881D02*
X018582Y005749D01*
X018450Y006157D01*
X018858Y006289D01*
X018990Y005881D01*
G37*
G36*
X019337Y004811D02*
X018929Y004679D01*
X018797Y005087D01*
X019205Y005219D01*
X019337Y004811D01*
G37*
G36*
X020120Y004937D02*
X020511Y005112D01*
X020686Y004721D01*
X020295Y004546D01*
X020120Y004937D01*
G37*
G36*
X021500Y005823D02*
X021129Y005608D01*
X020914Y005979D01*
X021285Y006194D01*
X021500Y005823D01*
G37*
G36*
X017568Y005333D02*
X017988Y005423D01*
X018078Y005003D01*
X017658Y004913D01*
X017568Y005333D01*
G37*
G36*
X016895Y005390D02*
X016468Y005345D01*
X016423Y005772D01*
X016850Y005817D01*
X016895Y005390D01*
G37*
G36*
X017012Y004271D02*
X016585Y004226D01*
X016540Y004653D01*
X016967Y004698D01*
X017012Y004271D01*
G37*
G36*
X017802Y004232D02*
X018222Y004322D01*
X018312Y003902D01*
X017892Y003812D01*
X017802Y004232D01*
G37*
G36*
X014625Y004226D02*
X014198Y004271D01*
X014243Y004698D01*
X014670Y004653D01*
X014625Y004226D01*
G37*
G36*
X014742Y005345D02*
X014315Y005390D01*
X014360Y005817D01*
X014787Y005772D01*
X014742Y005345D01*
G37*
G36*
X013222Y005423D02*
X013642Y005333D01*
X013552Y004913D01*
X013132Y005003D01*
X013222Y005423D01*
G37*
G36*
X012628Y005749D02*
X012220Y005881D01*
X012352Y006289D01*
X012760Y006157D01*
X012628Y005749D01*
G37*
G36*
X012281Y004679D02*
X011873Y004811D01*
X012005Y005219D01*
X012413Y005087D01*
X012281Y004679D01*
G37*
G36*
X012988Y004322D02*
X013408Y004232D01*
X013318Y003812D01*
X012898Y003902D01*
X012988Y004322D01*
G37*
G36*
X011157Y006140D02*
X011548Y005965D01*
X011373Y005574D01*
X010982Y005749D01*
X011157Y006140D01*
G37*
G36*
X010643Y006583D02*
X010272Y006798D01*
X010487Y007169D01*
X010858Y006954D01*
X010643Y006583D01*
G37*
G36*
X010081Y005608D02*
X009710Y005823D01*
X009925Y006194D01*
X010296Y005979D01*
X010081Y005608D01*
G37*
G36*
X010699Y005112D02*
X011090Y004937D01*
X010915Y004546D01*
X010524Y004721D01*
X010699Y005112D01*
G37*
G36*
X009286Y007273D02*
X009633Y007020D01*
X009380Y006673D01*
X009033Y006926D01*
X009286Y007273D01*
G37*
G36*
X008875Y007811D02*
X008557Y008099D01*
X008845Y008417D01*
X009163Y008129D01*
X008875Y007811D01*
G37*
G36*
X008123Y006975D02*
X007805Y007263D01*
X008093Y007581D01*
X008411Y007293D01*
X008123Y006975D01*
G37*
G36*
X008625Y006362D02*
X008972Y006109D01*
X008719Y005762D01*
X008372Y006015D01*
X008625Y006362D01*
G37*
G36*
X006854Y008015D02*
X007142Y007697D01*
X006824Y007409D01*
X006536Y007727D01*
X006854Y008015D01*
G37*
G36*
X007690Y008768D02*
X007978Y008450D01*
X007660Y008162D01*
X007372Y008480D01*
X007690Y008768D01*
G37*
G36*
X007403Y009380D02*
X007150Y009727D01*
X007497Y009980D01*
X007750Y009633D01*
X007403Y009380D01*
G37*
G36*
X006493Y008719D02*
X006240Y009066D01*
X006587Y009319D01*
X006840Y008972D01*
X006493Y008719D01*
G37*
G36*
X005468Y010000D02*
X005683Y009629D01*
X005312Y009414D01*
X005097Y009785D01*
X005468Y010000D01*
G37*
G36*
X006442Y010563D02*
X006657Y010192D01*
X006286Y009977D01*
X006071Y010348D01*
X006442Y010563D01*
G37*
G36*
X007417Y011125D02*
X007632Y010754D01*
X007261Y010539D01*
X007046Y010910D01*
X007417Y011125D01*
G37*
G36*
X006289Y011222D02*
X006114Y011613D01*
X006505Y011788D01*
X006680Y011397D01*
X006289Y011222D01*
G37*
G36*
X005261Y010765D02*
X005086Y011156D01*
X005477Y011331D01*
X005652Y010940D01*
X005261Y010765D01*
G37*
G36*
X004525Y012230D02*
X004657Y011822D01*
X004249Y011690D01*
X004117Y012098D01*
X004525Y012230D01*
G37*
G36*
X005595Y012578D02*
X005727Y012170D01*
X005319Y012038D01*
X005187Y012446D01*
X005595Y012578D01*
G37*
G36*
X005581Y013254D02*
X005491Y013674D01*
X005911Y013764D01*
X006001Y013344D01*
X005581Y013254D01*
G37*
G36*
X004480Y013020D02*
X004390Y013440D01*
X004810Y013530D01*
X004900Y013110D01*
X004480Y013020D01*
G37*
G36*
X004065Y014608D02*
X004110Y014181D01*
X003683Y014136D01*
X003638Y014563D01*
X004065Y014608D01*
G37*
G36*
X005184Y014726D02*
X005229Y014299D01*
X004802Y014254D01*
X004757Y014681D01*
X005184Y014726D01*
G37*
G36*
X005229Y016911D02*
X005184Y016484D01*
X004757Y016529D01*
X004802Y016956D01*
X005229Y016911D01*
G37*
G36*
X005491Y017536D02*
X005581Y017956D01*
X006001Y017866D01*
X005911Y017446D01*
X005491Y017536D01*
G37*
G36*
X004390Y017770D02*
X004480Y018190D01*
X004900Y018100D01*
X004810Y017680D01*
X004390Y017770D01*
G37*
G36*
X004110Y017029D02*
X004065Y016602D01*
X003638Y016647D01*
X003683Y017074D01*
X004110Y017029D01*
G37*
G36*
X005727Y019040D02*
X005595Y018632D01*
X005187Y018764D01*
X005319Y019172D01*
X005727Y019040D01*
G37*
G36*
X006114Y019597D02*
X006289Y019988D01*
X006680Y019813D01*
X006505Y019422D01*
X006114Y019597D01*
G37*
G36*
X005086Y020054D02*
X005261Y020445D01*
X005652Y020270D01*
X005477Y019879D01*
X005086Y020054D01*
G37*
G36*
X004657Y019388D02*
X004525Y018980D01*
X004117Y019112D01*
X004249Y019520D01*
X004657Y019388D01*
G37*
G36*
X006657Y021018D02*
X006442Y020647D01*
X006071Y020862D01*
X006286Y021233D01*
X006657Y021018D01*
G37*
G36*
X007632Y020456D02*
X007417Y020085D01*
X007046Y020300D01*
X007261Y020671D01*
X007632Y020456D01*
G37*
G36*
X007150Y021483D02*
X007403Y021830D01*
X007750Y021577D01*
X007497Y021230D01*
X007150Y021483D01*
G37*
G36*
X006240Y022144D02*
X006493Y022491D01*
X006840Y022238D01*
X006587Y021891D01*
X006240Y022144D01*
G37*
G36*
X005683Y021581D02*
X005468Y021210D01*
X005097Y021425D01*
X005312Y021796D01*
X005683Y021581D01*
G37*
G36*
X007142Y023513D02*
X006854Y023195D01*
X006536Y023483D01*
X006824Y023801D01*
X007142Y023513D01*
G37*
G36*
X007978Y022760D02*
X007690Y022442D01*
X007372Y022730D01*
X007660Y023048D01*
X007978Y022760D01*
G37*
G36*
X008557Y023111D02*
X008875Y023399D01*
X009163Y023081D01*
X008845Y022793D01*
X008557Y023111D01*
G37*
G36*
X007805Y023947D02*
X008123Y024235D01*
X008411Y023917D01*
X008093Y023629D01*
X007805Y023947D01*
G37*
G36*
X008972Y025101D02*
X008625Y024848D01*
X008372Y025195D01*
X008719Y025448D01*
X008972Y025101D01*
G37*
G36*
X009633Y024190D02*
X009286Y023937D01*
X009033Y024284D01*
X009380Y024537D01*
X009633Y024190D01*
G37*
G36*
X010272Y024412D02*
X010643Y024627D01*
X010858Y024256D01*
X010487Y024041D01*
X010272Y024412D01*
G37*
G36*
X011125Y023793D02*
X010754Y023578D01*
X010539Y023949D01*
X010910Y024164D01*
X011125Y023793D01*
G37*
G36*
X011548Y025245D02*
X011157Y025070D01*
X010982Y025461D01*
X011373Y025636D01*
X011548Y025245D01*
G37*
G36*
X012220Y025329D02*
X012628Y025461D01*
X012760Y025053D01*
X012352Y024921D01*
X012220Y025329D01*
G37*
G36*
X011873Y026399D02*
X012281Y026531D01*
X012413Y026123D01*
X012005Y025991D01*
X011873Y026399D01*
G37*
G36*
X011090Y026273D02*
X010699Y026098D01*
X010524Y026489D01*
X010915Y026664D01*
X011090Y026273D01*
G37*
G36*
X009710Y025387D02*
X010081Y025602D01*
X010296Y025231D01*
X009925Y025016D01*
X009710Y025387D01*
G37*
G36*
X013642Y025877D02*
X013222Y025787D01*
X013132Y026207D01*
X013552Y026297D01*
X013642Y025877D01*
G37*
G36*
X014315Y025820D02*
X014742Y025865D01*
X014787Y025438D01*
X014360Y025393D01*
X014315Y025820D01*
G37*
G36*
X014198Y026939D02*
X014625Y026984D01*
X014670Y026557D01*
X014243Y026512D01*
X014198Y026939D01*
G37*
G36*
X013408Y026978D02*
X012988Y026888D01*
X012898Y027308D01*
X013318Y027398D01*
X013408Y026978D01*
G37*
G36*
X010754Y007632D02*
X011125Y007417D01*
X010910Y007046D01*
X010539Y007261D01*
X010754Y007632D01*
G37*
D16*
G36*
X007725Y006519D02*
X007392Y006820D01*
X007693Y007153D01*
X008026Y006852D01*
X007725Y006519D01*
G37*
G36*
X008973Y006858D02*
X009336Y006593D01*
X009071Y006230D01*
X008708Y006495D01*
X008973Y006858D01*
G37*
G36*
X009634Y007768D02*
X009997Y007503D01*
X009732Y007140D01*
X009369Y007405D01*
X009634Y007768D01*
G37*
G36*
X008478Y007355D02*
X008145Y007656D01*
X008446Y007989D01*
X008779Y007688D01*
X008478Y007355D01*
G37*
G36*
X007298Y008428D02*
X007599Y008095D01*
X007266Y007794D01*
X006965Y008127D01*
X007298Y008428D01*
G37*
G36*
X008134Y009180D02*
X008435Y008847D01*
X008102Y008546D01*
X007801Y008879D01*
X008134Y009180D01*
G37*
G36*
X006920Y009016D02*
X006655Y009379D01*
X007018Y009644D01*
X007283Y009281D01*
X006920Y009016D01*
G37*
G36*
X006010Y008355D02*
X005745Y008718D01*
X006108Y008983D01*
X006373Y008620D01*
X006010Y008355D01*
G37*
G36*
X005988Y010312D02*
X006213Y009923D01*
X005824Y009698D01*
X005599Y010087D01*
X005988Y010312D01*
G37*
G36*
X006962Y010874D02*
X007187Y010485D01*
X006798Y010260D01*
X006573Y010649D01*
X006962Y010874D01*
G37*
G36*
X007936Y011437D02*
X008161Y011048D01*
X007772Y010823D01*
X007547Y011212D01*
X007936Y011437D01*
G37*
G36*
X006167Y012775D02*
X006306Y012348D01*
X005879Y012209D01*
X005740Y012636D01*
X006167Y012775D01*
G37*
G36*
X004990Y013120D02*
X004897Y013559D01*
X005336Y013652D01*
X005429Y013213D01*
X004990Y013120D01*
G37*
G36*
X003890Y012886D02*
X003797Y013325D01*
X004236Y013418D01*
X004329Y012979D01*
X003890Y012886D01*
G37*
G36*
X005097Y012427D02*
X005236Y012000D01*
X004809Y011861D01*
X004670Y012288D01*
X005097Y012427D01*
G37*
G36*
X005739Y010966D02*
X005556Y011377D01*
X005967Y011560D01*
X006150Y011149D01*
X005739Y010966D01*
G37*
G36*
X004711Y010508D02*
X004528Y010919D01*
X004939Y011102D01*
X005122Y010691D01*
X004711Y010508D01*
G37*
G36*
X004666Y014681D02*
X004713Y014234D01*
X004266Y014187D01*
X004219Y014634D01*
X004666Y014681D01*
G37*
G36*
X005785Y014799D02*
X005832Y014352D01*
X005385Y014305D01*
X005338Y014752D01*
X005785Y014799D01*
G37*
G36*
X005832Y016858D02*
X005785Y016411D01*
X005338Y016458D01*
X005385Y016905D01*
X005832Y016858D01*
G37*
G36*
X004897Y017651D02*
X004990Y018090D01*
X005429Y017997D01*
X005336Y017558D01*
X004897Y017651D01*
G37*
G36*
X003797Y017885D02*
X003890Y018324D01*
X004329Y018231D01*
X004236Y017792D01*
X003797Y017885D01*
G37*
G36*
X004713Y016976D02*
X004666Y016529D01*
X004219Y016576D01*
X004266Y017023D01*
X004713Y016976D01*
G37*
G36*
X006306Y018862D02*
X006167Y018435D01*
X005740Y018574D01*
X005879Y019001D01*
X006306Y018862D01*
G37*
G36*
X005556Y019833D02*
X005739Y020244D01*
X006150Y020061D01*
X005967Y019650D01*
X005556Y019833D01*
G37*
G36*
X004528Y020291D02*
X004711Y020702D01*
X005122Y020519D01*
X004939Y020108D01*
X004528Y020291D01*
G37*
G36*
X005236Y019210D02*
X005097Y018783D01*
X004670Y018922D01*
X004809Y019349D01*
X005236Y019210D01*
G37*
G36*
X006213Y021287D02*
X005988Y020898D01*
X005599Y021123D01*
X005824Y021512D01*
X006213Y021287D01*
G37*
G36*
X007187Y020725D02*
X006962Y020336D01*
X006573Y020561D01*
X006798Y020950D01*
X007187Y020725D01*
G37*
G36*
X008161Y020162D02*
X007936Y019773D01*
X007547Y019998D01*
X007772Y020387D01*
X008161Y020162D01*
G37*
G36*
X006655Y021831D02*
X006920Y022194D01*
X007283Y021929D01*
X007018Y021566D01*
X006655Y021831D01*
G37*
G36*
X005745Y022492D02*
X006010Y022855D01*
X006373Y022590D01*
X006108Y022227D01*
X005745Y022492D01*
G37*
G36*
X007599Y023115D02*
X007298Y022782D01*
X006965Y023083D01*
X007266Y023416D01*
X007599Y023115D01*
G37*
G36*
X008435Y022363D02*
X008134Y022030D01*
X007801Y022331D01*
X008102Y022664D01*
X008435Y022363D01*
G37*
G36*
X008145Y023554D02*
X008478Y023855D01*
X008779Y023522D01*
X008446Y023221D01*
X008145Y023554D01*
G37*
G36*
X007392Y024390D02*
X007725Y024691D01*
X008026Y024358D01*
X007693Y024057D01*
X007392Y024390D01*
G37*
G36*
X009336Y024617D02*
X008973Y024352D01*
X008708Y024715D01*
X009071Y024980D01*
X009336Y024617D01*
G37*
G36*
X009997Y023707D02*
X009634Y023442D01*
X009369Y023805D01*
X009732Y024070D01*
X009997Y023707D01*
G37*
G36*
X011437Y023274D02*
X011048Y023049D01*
X010823Y023438D01*
X011212Y023663D01*
X011437Y023274D01*
G37*
G36*
X011804Y024695D02*
X011393Y024512D01*
X011210Y024923D01*
X011621Y025106D01*
X011804Y024695D01*
G37*
G36*
X012023Y025902D02*
X012450Y026041D01*
X012589Y025614D01*
X012162Y025475D01*
X012023Y025902D01*
G37*
G36*
X011676Y026971D02*
X012103Y027110D01*
X012242Y026683D01*
X011815Y026544D01*
X011676Y026971D01*
G37*
G36*
X011347Y025723D02*
X010936Y025540D01*
X010753Y025951D01*
X011164Y026134D01*
X011347Y025723D01*
G37*
G36*
X009960Y024932D02*
X010349Y025157D01*
X010574Y024768D01*
X010185Y024543D01*
X009960Y024932D01*
G37*
G36*
X009398Y025906D02*
X009787Y026131D01*
X010012Y025742D01*
X009623Y025517D01*
X009398Y025906D01*
G37*
G36*
X013542Y026387D02*
X013103Y026294D01*
X013010Y026733D01*
X013449Y026826D01*
X013542Y026387D01*
G37*
G36*
X013776Y025287D02*
X013337Y025194D01*
X013244Y025633D01*
X013683Y025726D01*
X013776Y025287D01*
G37*
G36*
X014242Y026422D02*
X014689Y026469D01*
X014736Y026022D01*
X014289Y025975D01*
X014242Y026422D01*
G37*
G36*
X014125Y027540D02*
X014572Y027587D01*
X014619Y027140D01*
X014172Y027093D01*
X014125Y027540D01*
G37*
G36*
X016638Y027587D02*
X017085Y027540D01*
X017038Y027093D01*
X016591Y027140D01*
X016638Y027587D01*
G37*
G36*
X016521Y026469D02*
X016968Y026422D01*
X016921Y025975D01*
X016474Y026022D01*
X016521Y026469D01*
G37*
G36*
X017873Y025194D02*
X017434Y025287D01*
X017527Y025726D01*
X017966Y025633D01*
X017873Y025194D01*
G37*
G36*
X018760Y026041D02*
X019187Y025902D01*
X019048Y025475D01*
X018621Y025614D01*
X018760Y026041D01*
G37*
G36*
X019107Y027110D02*
X019534Y026971D01*
X019395Y026544D01*
X018968Y026683D01*
X019107Y027110D01*
G37*
G36*
X018107Y026294D02*
X017668Y026387D01*
X017761Y026826D01*
X018200Y026733D01*
X018107Y026294D01*
G37*
G36*
X019817Y024512D02*
X019406Y024695D01*
X019589Y025106D01*
X020000Y024923D01*
X019817Y024512D01*
G37*
G36*
X020861Y025157D02*
X021250Y024932D01*
X021025Y024543D01*
X020636Y024768D01*
X020861Y025157D01*
G37*
G36*
X021423Y026131D02*
X021812Y025906D01*
X021587Y025517D01*
X021198Y025742D01*
X021423Y026131D01*
G37*
G36*
X020274Y025540D02*
X019863Y025723D01*
X020046Y026134D01*
X020457Y025951D01*
X020274Y025540D01*
G37*
G36*
X021576Y023442D02*
X021213Y023707D01*
X021478Y024070D01*
X021841Y023805D01*
X021576Y023442D01*
G37*
G36*
X022732Y023855D02*
X023065Y023554D01*
X022764Y023221D01*
X022431Y023522D01*
X022732Y023855D01*
G37*
G36*
X023485Y024691D02*
X023818Y024390D01*
X023517Y024057D01*
X023184Y024358D01*
X023485Y024691D01*
G37*
G36*
X022237Y024352D02*
X021874Y024617D01*
X022139Y024980D01*
X022502Y024715D01*
X022237Y024352D01*
G37*
G36*
X023912Y022782D02*
X023611Y023115D01*
X023944Y023416D01*
X024245Y023083D01*
X023912Y022782D01*
G37*
G36*
X023076Y022030D02*
X022775Y022363D01*
X023108Y022664D01*
X023409Y022331D01*
X023076Y022030D01*
G37*
G36*
X024290Y022194D02*
X024555Y021831D01*
X024192Y021566D01*
X023927Y021929D01*
X024290Y022194D01*
G37*
G36*
X025200Y022855D02*
X025465Y022492D01*
X025102Y022227D01*
X024837Y022590D01*
X025200Y022855D01*
G37*
G36*
X025222Y020898D02*
X024997Y021287D01*
X025386Y021512D01*
X025611Y021123D01*
X025222Y020898D01*
G37*
G36*
X024248Y020336D02*
X024023Y020725D01*
X024412Y020950D01*
X024637Y020561D01*
X024248Y020336D01*
G37*
G36*
X023274Y019773D02*
X023049Y020162D01*
X023438Y020387D01*
X023663Y019998D01*
X023274Y019773D01*
G37*
G36*
X025043Y018435D02*
X024904Y018862D01*
X025331Y019001D01*
X025470Y018574D01*
X025043Y018435D01*
G37*
G36*
X026220Y018090D02*
X026313Y017651D01*
X025874Y017558D01*
X025781Y017997D01*
X026220Y018090D01*
G37*
G36*
X027320Y018324D02*
X027413Y017885D01*
X026974Y017792D01*
X026881Y018231D01*
X027320Y018324D01*
G37*
G36*
X026113Y018783D02*
X025974Y019210D01*
X026401Y019349D01*
X026540Y018922D01*
X026113Y018783D01*
G37*
G36*
X025471Y020244D02*
X025654Y019833D01*
X025243Y019650D01*
X025060Y020061D01*
X025471Y020244D01*
G37*
G36*
X026499Y020702D02*
X026682Y020291D01*
X026271Y020108D01*
X026088Y020519D01*
X026499Y020702D01*
G37*
G36*
X026544Y016529D02*
X026497Y016976D01*
X026944Y017023D01*
X026991Y016576D01*
X026544Y016529D01*
G37*
G36*
X025425Y016411D02*
X025378Y016858D01*
X025825Y016905D01*
X025872Y016458D01*
X025425Y016411D01*
G37*
G36*
X025378Y014352D02*
X025425Y014799D01*
X025872Y014752D01*
X025825Y014305D01*
X025378Y014352D01*
G37*
G36*
X026313Y013559D02*
X026220Y013120D01*
X025781Y013213D01*
X025874Y013652D01*
X026313Y013559D01*
G37*
G36*
X027413Y013325D02*
X027320Y012886D01*
X026881Y012979D01*
X026974Y013418D01*
X027413Y013325D01*
G37*
G36*
X026497Y014234D02*
X026544Y014681D01*
X026991Y014634D01*
X026944Y014187D01*
X026497Y014234D01*
G37*
G36*
X024904Y012348D02*
X025043Y012775D01*
X025470Y012636D01*
X025331Y012209D01*
X024904Y012348D01*
G37*
G36*
X025654Y011377D02*
X025471Y010966D01*
X025060Y011149D01*
X025243Y011560D01*
X025654Y011377D01*
G37*
G36*
X026682Y010919D02*
X026499Y010508D01*
X026088Y010691D01*
X026271Y011102D01*
X026682Y010919D01*
G37*
G36*
X025974Y012000D02*
X026113Y012427D01*
X026540Y012288D01*
X026401Y011861D01*
X025974Y012000D01*
G37*
G36*
X024023Y010485D02*
X024248Y010874D01*
X024637Y010649D01*
X024412Y010260D01*
X024023Y010485D01*
G37*
G36*
X023049Y011048D02*
X023274Y011437D01*
X023663Y011212D01*
X023438Y010823D01*
X023049Y011048D01*
G37*
G36*
X024555Y009379D02*
X024290Y009016D01*
X023927Y009281D01*
X024192Y009644D01*
X024555Y009379D01*
G37*
G36*
X025465Y008718D02*
X025200Y008355D01*
X024837Y008620D01*
X025102Y008983D01*
X025465Y008718D01*
G37*
G36*
X024997Y009923D02*
X025222Y010312D01*
X025611Y010087D01*
X025386Y009698D01*
X024997Y009923D01*
G37*
G36*
X023611Y008095D02*
X023912Y008428D01*
X024245Y008127D01*
X023944Y007794D01*
X023611Y008095D01*
G37*
G36*
X022775Y008847D02*
X023076Y009180D01*
X023409Y008879D01*
X023108Y008546D01*
X022775Y008847D01*
G37*
G36*
X023065Y007656D02*
X022732Y007355D01*
X022431Y007688D01*
X022764Y007989D01*
X023065Y007656D01*
G37*
G36*
X023818Y006820D02*
X023485Y006519D01*
X023184Y006852D01*
X023517Y007153D01*
X023818Y006820D01*
G37*
G36*
X021874Y006593D02*
X022237Y006858D01*
X022502Y006495D01*
X022139Y006230D01*
X021874Y006593D01*
G37*
G36*
X021213Y007503D02*
X021576Y007768D01*
X021841Y007405D01*
X021478Y007140D01*
X021213Y007503D01*
G37*
G36*
X021250Y006278D02*
X020861Y006053D01*
X020636Y006442D01*
X021025Y006667D01*
X021250Y006278D01*
G37*
G36*
X021812Y005304D02*
X021423Y005079D01*
X021198Y005468D01*
X021587Y005693D01*
X021812Y005304D01*
G37*
G36*
X019863Y005487D02*
X020274Y005670D01*
X020457Y005259D01*
X020046Y005076D01*
X019863Y005487D01*
G37*
G36*
X019406Y006515D02*
X019817Y006698D01*
X020000Y006287D01*
X019589Y006104D01*
X019406Y006515D01*
G37*
G36*
X019187Y005308D02*
X018760Y005169D01*
X018621Y005596D01*
X019048Y005735D01*
X019187Y005308D01*
G37*
G36*
X019534Y004239D02*
X019107Y004100D01*
X018968Y004527D01*
X019395Y004666D01*
X019534Y004239D01*
G37*
G36*
X017668Y004823D02*
X018107Y004916D01*
X018200Y004477D01*
X017761Y004384D01*
X017668Y004823D01*
G37*
G36*
X017434Y005923D02*
X017873Y006016D01*
X017966Y005577D01*
X017527Y005484D01*
X017434Y005923D01*
G37*
G36*
X016968Y004788D02*
X016521Y004741D01*
X016474Y005188D01*
X016921Y005235D01*
X016968Y004788D01*
G37*
G36*
X017085Y003670D02*
X016638Y003623D01*
X016591Y004070D01*
X017038Y004117D01*
X017085Y003670D01*
G37*
G36*
X014572Y003623D02*
X014125Y003670D01*
X014172Y004117D01*
X014619Y004070D01*
X014572Y003623D01*
G37*
G36*
X014689Y004741D02*
X014242Y004788D01*
X014289Y005235D01*
X014736Y005188D01*
X014689Y004741D01*
G37*
G36*
X013337Y006016D02*
X013776Y005923D01*
X013683Y005484D01*
X013244Y005577D01*
X013337Y006016D01*
G37*
G36*
X012450Y005169D02*
X012023Y005308D01*
X012162Y005735D01*
X012589Y005596D01*
X012450Y005169D01*
G37*
G36*
X012103Y004100D02*
X011676Y004239D01*
X011815Y004666D01*
X012242Y004527D01*
X012103Y004100D01*
G37*
G36*
X013103Y004916D02*
X013542Y004823D01*
X013449Y004384D01*
X013010Y004477D01*
X013103Y004916D01*
G37*
G36*
X011393Y006698D02*
X011804Y006515D01*
X011621Y006104D01*
X011210Y006287D01*
X011393Y006698D01*
G37*
G36*
X010349Y006053D02*
X009960Y006278D01*
X010185Y006667D01*
X010574Y006442D01*
X010349Y006053D01*
G37*
G36*
X009787Y005079D02*
X009398Y005304D01*
X009623Y005693D01*
X010012Y005468D01*
X009787Y005079D01*
G37*
G36*
X010936Y005670D02*
X011347Y005487D01*
X011164Y005076D01*
X010753Y005259D01*
X010936Y005670D01*
G37*
G36*
X011048Y008161D02*
X011437Y007936D01*
X011212Y007547D01*
X010823Y007772D01*
X011048Y008161D01*
G37*
G36*
X019773Y007936D02*
X020162Y008161D01*
X020387Y007772D01*
X019998Y007547D01*
X019773Y007936D01*
G37*
G36*
X020162Y023049D02*
X019773Y023274D01*
X019998Y023663D01*
X020387Y023438D01*
X020162Y023049D01*
G37*
D17*
X017967Y018676D03*
X017652Y018676D03*
X017337Y018676D03*
X017022Y018676D03*
X016707Y018676D03*
X016392Y018676D03*
X016077Y018676D03*
X015762Y018676D03*
X015448Y018676D03*
X015133Y018676D03*
X014818Y018676D03*
X014503Y018676D03*
X014188Y018676D03*
X013873Y018676D03*
X013558Y018676D03*
X013243Y018676D03*
X013243Y012534D03*
X013558Y012534D03*
X013873Y012534D03*
X014188Y012534D03*
X014503Y012534D03*
X014818Y012534D03*
X015133Y012534D03*
X015448Y012534D03*
X015762Y012534D03*
X016077Y012534D03*
X016392Y012534D03*
X016707Y012534D03*
X017022Y012534D03*
X017337Y012534D03*
X017652Y012534D03*
X017967Y012534D03*
D18*
X018676Y013243D03*
X018676Y013558D03*
X018676Y013873D03*
X018676Y014188D03*
X018676Y014503D03*
X018676Y014818D03*
X018676Y015133D03*
X018676Y015448D03*
X018676Y015762D03*
X018676Y016077D03*
X018676Y016392D03*
X018676Y016707D03*
X018676Y017022D03*
X018676Y017337D03*
X018676Y017652D03*
X018676Y017967D03*
X012534Y017967D03*
X012534Y017652D03*
X012534Y017337D03*
X012534Y017022D03*
X012534Y016707D03*
X012534Y016392D03*
X012534Y016077D03*
X012534Y015762D03*
X012534Y015448D03*
X012534Y015133D03*
X012534Y014818D03*
X012534Y014503D03*
X012534Y014188D03*
X012534Y013873D03*
X012534Y013558D03*
X012534Y013243D03*
D19*
X014555Y010815D03*
X014555Y010145D03*
X014555Y009315D03*
X014555Y008645D03*
X016655Y010145D03*
X016655Y010815D03*
X014188Y019645D03*
X014188Y020315D03*
D20*
X015580Y020395D03*
X015580Y021065D03*
X016430Y021065D03*
X016430Y020395D03*
X017280Y020395D03*
X017280Y021065D03*
X018130Y021065D03*
X018980Y021065D03*
X018980Y020395D03*
X018130Y020395D03*
D21*
X011846Y027653D03*
X009320Y026549D03*
D22*
X009287Y027609D03*
X011091Y028397D03*
D23*
X022405Y013676D03*
D24*
X022255Y012626D03*
X021455Y012626D03*
X021305Y013676D03*
X021305Y011576D03*
X022405Y011576D03*
D25*
X015605Y010630D03*
X015605Y008830D03*
D26*
X020157Y028228D03*
X018318Y028745D03*
D27*
X018017Y030056D03*
X021097Y029190D03*
D28*
X010230Y019943D03*
X010230Y015317D03*
M02*
